<svg xmlns="http://www.w3.org/2000/svg" xmlns:xlink="http://www.w3.org/1999/xlink" viewBox="0 0 464.72 412.02"><defs><style>.cls-1{isolation:isolate;}.cls-2{fill:url(#radial-gradient);}.cls-3,.cls-48,.cls-49{mix-blend-mode:screen;}.cls-4{fill:#f76244;}.cls-47,.cls-5{fill:#a4202e;}.cls-6{fill:#fb9644;}.cls-7{fill:#bababa;}.cls-8{fill:url(#linear-gradient);}.cls-9{fill:url(#linear-gradient-2);}.cls-10{fill:url(#linear-gradient-3);}.cls-11{fill:url(#linear-gradient-4);}.cls-12{fill:url(#linear-gradient-5);}.cls-13{fill:url(#linear-gradient-6);}.cls-14{fill:url(#linear-gradient-7);}.cls-15{fill:url(#linear-gradient-8);}.cls-16{fill:#cfcfcf;}.cls-17{fill:url(#linear-gradient-9);}.cls-18{fill:url(#linear-gradient-10);}.cls-19{fill:url(#linear-gradient-11);}.cls-20{fill:url(#linear-gradient-12);}.cls-21{fill:url(#linear-gradient-13);}.cls-22{fill:url(#linear-gradient-14);}.cls-23{fill:url(#linear-gradient-15);}.cls-24{fill:url(#radial-gradient-2);}.cls-25{fill:url(#linear-gradient-16);}.cls-26{fill:#322b6f;}.cls-27{fill:#fc753e;}.cls-28{fill:url(#linear-gradient-17);}.cls-29{fill:url(#linear-gradient-18);}.cls-30{fill:#95635a;}.cls-31{fill:url(#linear-gradient-19);}.cls-32{fill:url(#radial-gradient-3);}.cls-33{fill:url(#radial-gradient-4);}.cls-34{fill:url(#linear-gradient-20);}.cls-35{fill:url(#linear-gradient-21);}.cls-36{fill:#5d322c;}.cls-37{fill:url(#linear-gradient-22);}.cls-38,.cls-47{opacity:0.35;mix-blend-mode:multiply;}.cls-38{fill:url(#radial-gradient-5);}.cls-39{fill:url(#linear-gradient-23);}.cls-40{fill:url(#radial-gradient-6);}.cls-41{fill:url(#radial-gradient-7);}.cls-42{fill:url(#linear-gradient-24);}.cls-43{fill:url(#linear-gradient-25);}.cls-44{fill:url(#linear-gradient-26);}.cls-45{fill:url(#linear-gradient-27);}.cls-46{fill:url(#radial-gradient-8);}.cls-48{fill:url(#linear-gradient-28);}.cls-49{fill:url(#linear-gradient-29);}.cls-50{fill:#75202e;}.cls-51{fill:#fff;}.cls-52{fill:url(#linear-gradient-30);}.cls-53{fill:url(#linear-gradient-31);}.cls-54{fill:url(#linear-gradient-32);}.cls-55{fill:url(#linear-gradient-33);}.cls-56{fill:url(#radial-gradient-9);}.cls-57{fill:url(#linear-gradient-34);}.cls-58{fill:url(#linear-gradient-35);}.cls-59{fill:#ffb363;}.cls-60{fill:url(#linear-gradient-36);}</style><radialGradient id="radial-gradient" cx="195.27" cy="372" r="626.19" gradientTransform="translate(0 142.51) scale(1 0.62)" gradientUnits="userSpaceOnUse"><stop offset="0" stop-color="#f76244"/><stop offset="0.08" stop-color="#f7684a"/><stop offset="0.2" stop-color="#f87a5c"/><stop offset="0.34" stop-color="#f9977a"/><stop offset="0.49" stop-color="#fbbfa2"/><stop offset="0.54" stop-color="#fccfb2"/><stop offset="1" stop-color="#ffe5d4"/></radialGradient><linearGradient id="linear-gradient" x1="253.56" y1="379.38" x2="110.94" y2="420.3" gradientUnits="userSpaceOnUse"><stop offset="0.01" stop-color="#d7d7de"/><stop offset="0.11" stop-color="#e2dbdb"/><stop offset="0.31" stop-color="#f2e1d7"/><stop offset="0.53" stop-color="#fce4d5"/><stop offset="0.82" stop-color="#ffe5d4"/><stop offset="0.85" stop-color="#ffe5d4"/><stop offset="1" stop-color="#ffe5d4"/></linearGradient><linearGradient id="linear-gradient-2" x1="351.06" y1="361.96" x2="415.6" y2="335.2" xlink:href="#linear-gradient"/><linearGradient id="linear-gradient-3" x1="265.23" y1="406.44" x2="386.75" y2="329.62" gradientUnits="userSpaceOnUse"><stop offset="0.01" stop-color="#d7d7de"/><stop offset="0.08" stop-color="#e6e6ea"/><stop offset="0.18" stop-color="#f4f4f6"/><stop offset="0.31" stop-color="#fdfdfd"/><stop offset="0.52" stop-color="#fff"/><stop offset="0.78" stop-color="#fffefd"/><stop offset="0.87" stop-color="#fffaf6"/><stop offset="0.93" stop-color="#fff3eb"/><stop offset="0.99" stop-color="#ffe9da"/><stop offset="1" stop-color="#ffe5d4"/></linearGradient><linearGradient id="linear-gradient-4" x1="234.13" y1="357.27" x2="161.72" y2="446.68" xlink:href="#linear-gradient-3"/><linearGradient id="linear-gradient-5" x1="294.74" y1="387.43" x2="169.91" y2="361.97" gradientUnits="userSpaceOnUse"><stop offset="0.55" stop-color="#d7d7de"/><stop offset="0.79" stop-color="#d9d9e0"/><stop offset="0.88" stop-color="#e0e0e5"/><stop offset="0.94" stop-color="#ebebef"/><stop offset="0.99" stop-color="#fcfcfd"/><stop offset="1" stop-color="#fff"/></linearGradient><linearGradient id="linear-gradient-6" x1="353.72" y1="373.54" x2="457.2" y2="314.41" xlink:href="#linear-gradient-3"/><linearGradient id="linear-gradient-7" x1="254" y1="110.68" x2="313.22" y2="110.68" gradientUnits="userSpaceOnUse"><stop offset="0.01" stop-color="#d7d7de"/><stop offset="0.1" stop-color="#dcdce2"/><stop offset="0.66" stop-color="#f5f5f7"/><stop offset="1" stop-color="#fff"/></linearGradient><linearGradient id="linear-gradient-8" x1="274.68" y1="100.22" x2="308.33" y2="100.22" xlink:href="#linear-gradient-7"/><linearGradient id="linear-gradient-9" x1="269.62" y1="346.12" x2="142.77" y2="282.7" xlink:href="#linear-gradient-7"/><linearGradient id="linear-gradient-10" x1="199.55" y1="302.59" x2="236.31" y2="302.59" xlink:href="#linear-gradient"/><linearGradient id="linear-gradient-11" x1="137.03" y1="74.51" x2="203.75" y2="74.51" xlink:href="#linear-gradient-7"/><linearGradient id="linear-gradient-12" x1="33.7" y1="229.03" x2="84.48" y2="229.03" xlink:href="#linear-gradient-7"/><linearGradient id="linear-gradient-13" x1="353.2" y1="300.39" x2="406.14" y2="300.39" xlink:href="#linear-gradient-7"/><linearGradient id="linear-gradient-14" x1="147.86" y1="125.59" x2="175.09" y2="125.59" xlink:href="#linear-gradient-7"/><linearGradient id="linear-gradient-15" x1="128.95" y1="165.67" x2="77.94" y2="111.37" gradientUnits="userSpaceOnUse"><stop offset="0" stop-color="#ffb363"/><stop offset="0.07" stop-color="#f09b5a"/><stop offset="0.2" stop-color="#d56f4b"/><stop offset="0.34" stop-color="#c04d3e"/><stop offset="0.46" stop-color="#b03435"/><stop offset="0.58" stop-color="#a72530"/><stop offset="0.67" stop-color="#a4202e"/></linearGradient><radialGradient id="radial-gradient-2" cx="119.64" cy="162.22" r="24.01" gradientTransform="translate(22.83 53.92) rotate(13.66) scale(1 0.51)" gradientUnits="userSpaceOnUse"><stop offset="0" stop-color="#ffe5d4"/><stop offset="0.19" stop-color="#fedcba"/><stop offset="0.59" stop-color="#fdc577"/><stop offset="0.93" stop-color="#fbb03b"/></radialGradient><linearGradient id="linear-gradient-16" x1="134.77" y1="156.09" x2="153.35" y2="147.27" gradientUnits="userSpaceOnUse"><stop offset="0.2" stop-color="#ff7d68"/><stop offset="0.51" stop-color="#fd9f83"/><stop offset="0.82" stop-color="#fbba99"/><stop offset="1" stop-color="#fac4a1"/></linearGradient><linearGradient id="linear-gradient-17" x1="148.91" y1="204.14" x2="136" y2="170.14" gradientUnits="userSpaceOnUse"><stop offset="0" stop-color="#ffb363"/><stop offset="0.07" stop-color="#ed9b5a"/><stop offset="0.2" stop-color="#cd6f4b"/><stop offset="0.34" stop-color="#b44d3e"/><stop offset="0.46" stop-color="#a23435"/><stop offset="0.58" stop-color="#972530"/><stop offset="0.67" stop-color="#93202e"/></linearGradient><linearGradient id="linear-gradient-18" x1="157.4" y1="163.24" x2="159.6" y2="211.4" gradientUnits="userSpaceOnUse"><stop offset="0.2" stop-color="#ff7d68"/><stop offset="0.23" stop-color="#fe8972"/><stop offset="0.3" stop-color="#fd9f83"/><stop offset="0.38" stop-color="#fbb091"/><stop offset="0.48" stop-color="#fbbb9a"/><stop offset="0.62" stop-color="#fac29f"/><stop offset="1" stop-color="#fac4a1"/></linearGradient><linearGradient id="linear-gradient-19" x1="103.12" y1="143.56" x2="110.2" y2="143.56" gradientUnits="userSpaceOnUse"><stop offset="0.05" stop-color="#ff7d4d"/><stop offset="0.09" stop-color="#fe8454"/><stop offset="0.26" stop-color="#fc9869"/><stop offset="0.45" stop-color="#faa778"/><stop offset="0.67" stop-color="#f9af81"/><stop offset="1" stop-color="#f9b284"/></linearGradient><radialGradient id="radial-gradient-3" cx="116.46" cy="132.07" r="32.61" gradientUnits="userSpaceOnUse"><stop offset="0" stop-color="#fac4a1"/><stop offset="0.28" stop-color="#fac29f"/><stop offset="0.38" stop-color="#fbbb9a"/><stop offset="0.45" stop-color="#fbb091"/><stop offset="0.51" stop-color="#fd9f83"/><stop offset="0.56" stop-color="#fe8972"/><stop offset="0.58" stop-color="#ff7d68"/></radialGradient><radialGradient id="radial-gradient-4" cx="114.24" cy="193.61" r="27.15" gradientTransform="matrix(1, 0, 0, 1, 0, 0)" xlink:href="#radial-gradient-2"/><linearGradient id="linear-gradient-20" x1="130.83" y1="212.49" x2="135.87" y2="181" xlink:href="#linear-gradient-15"/><linearGradient id="linear-gradient-21" x1="215.75" y1="215.17" x2="178.91" y2="268.86" gradientUnits="userSpaceOnUse"><stop offset="0.15" stop-color="#ff7d68"/><stop offset="0.18" stop-color="#fe8972"/><stop offset="0.25" stop-color="#fd9f83"/><stop offset="0.34" stop-color="#fbb091"/><stop offset="0.44" stop-color="#fbbb9a"/><stop offset="0.59" stop-color="#fac29f"/><stop offset="1" stop-color="#fac4a1"/></linearGradient><linearGradient id="linear-gradient-22" x1="118.21" y1="154.28" x2="92.23" y2="100.92" xlink:href="#linear-gradient-15"/><radialGradient id="radial-gradient-5" cx="105.99" cy="175.89" r="7.28" gradientTransform="matrix(1, 0, 0, 1, 0, 0)" xlink:href="#radial-gradient-2"/><linearGradient id="linear-gradient-23" x1="69.4" y1="192.19" x2="113.5" y2="192.19" gradientUnits="userSpaceOnUse"><stop offset="0" stop-color="#fac4a1"/><stop offset="0.18" stop-color="#fbba99"/><stop offset="0.49" stop-color="#fd9f83"/><stop offset="0.8" stop-color="#ff7d68"/></linearGradient><radialGradient id="radial-gradient-6" cx="106.13" cy="187.4" r="24.62" gradientTransform="matrix(1, 0, 0, 1, 0, 0)" xlink:href="#radial-gradient-2"/><radialGradient id="radial-gradient-7" cx="281.97" cy="236.43" r="61.34" gradientUnits="userSpaceOnUse"><stop offset="0" stop-color="#ffb363"/><stop offset="0" stop-color="#feb162"/><stop offset="0.13" stop-color="#d67c49"/><stop offset="0.26" stop-color="#b54f35"/><stop offset="0.37" stop-color="#9b2d25"/><stop offset="0.49" stop-color="#891419"/><stop offset="0.59" stop-color="#7e0512"/><stop offset="0.67" stop-color="#7a0010"/></radialGradient><linearGradient id="linear-gradient-24" x1="240.72" y1="265.98" x2="302.62" y2="265.98" gradientUnits="userSpaceOnUse"><stop offset="0" stop-color="#c2726e"/><stop offset="0.08" stop-color="#ac6460"/><stop offset="0.24" stop-color="#8a4e49"/><stop offset="0.38" stop-color="#713f39"/><stop offset="0.51" stop-color="#62352f"/><stop offset="0.62" stop-color="#5d322c"/><stop offset="0.99" stop-color="#3c0700"/></linearGradient><linearGradient id="linear-gradient-25" x1="262.04" y1="289.57" x2="318.8" y2="289.57" gradientUnits="userSpaceOnUse"><stop offset="0" stop-color="#c2726e"/><stop offset="0.03" stop-color="#b36864"/><stop offset="0.1" stop-color="#985853"/><stop offset="0.17" stop-color="#824a44"/><stop offset="0.26" stop-color="#713f39"/><stop offset="0.37" stop-color="#663732"/><stop offset="0.53" stop-color="#5f332d"/><stop offset="0.96" stop-color="#5d322c"/></linearGradient><linearGradient id="linear-gradient-26" x1="296.86" y1="202.9" x2="338.57" y2="181.49" xlink:href="#linear-gradient-15"/><linearGradient id="linear-gradient-27" x1="327.96" y1="174.82" x2="290.18" y2="192.3" gradientUnits="userSpaceOnUse"><stop offset="0.32" stop-color="#ff7d68"/><stop offset="0.54" stop-color="#fe8268"/><stop offset="0.8" stop-color="#fb9169"/><stop offset="1" stop-color="#f7a169"/></linearGradient><radialGradient id="radial-gradient-8" cx="281.37" cy="219.12" r="90.58" xlink:href="#linear-gradient-15"/><linearGradient id="linear-gradient-28" x1="257.96" y1="199.51" x2="338.13" y2="169.45" gradientUnits="userSpaceOnUse"><stop offset="0" stop-color="#fff"/><stop offset="0.03" stop-color="#fcfcfc" stop-opacity="0.92"/><stop offset="0.09" stop-color="#f4f4f6" stop-opacity="0.73"/><stop offset="0.17" stop-color="#ededf0" stop-opacity="0.55"/><stop offset="0.24" stop-color="#e7e7eb" stop-opacity="0.4"/><stop offset="0.33" stop-color="#e2e2e7" stop-opacity="0.28"/><stop offset="0.42" stop-color="#dedee4" stop-opacity="0.18"/><stop offset="0.51" stop-color="#dbdbe1" stop-opacity="0.1"/><stop offset="0.62" stop-color="#d9d9df" stop-opacity="0.04"/><stop offset="0.76" stop-color="#d7d7de" stop-opacity="0.01"/><stop offset="0.99" stop-color="#d7d7de" stop-opacity="0"/></linearGradient><linearGradient id="linear-gradient-29" x1="279.99" y1="217.2" x2="255.11" y2="198.46" gradientUnits="userSpaceOnUse"><stop offset="0" stop-color="#fff"/><stop offset="0.21" stop-color="#f4f4f6" stop-opacity="0.71"/><stop offset="0.42" stop-color="#e9e9ed" stop-opacity="0.46"/><stop offset="0.61" stop-color="#e1e1e7" stop-opacity="0.26"/><stop offset="0.77" stop-color="#dcdce2" stop-opacity="0.12"/><stop offset="0.9" stop-color="#d8d8df" stop-opacity="0.03"/><stop offset="0.99" stop-color="#d7d7de" stop-opacity="0"/></linearGradient><linearGradient id="linear-gradient-30" x1="296.64" y1="199.81" x2="338.36" y2="178.4" gradientUnits="userSpaceOnUse"><stop offset="0" stop-color="#ffb363"/><stop offset="0.07" stop-color="#e79b5a"/><stop offset="0.2" stop-color="#bc6f4b"/><stop offset="0.34" stop-color="#9a4d3e"/><stop offset="0.46" stop-color="#813435"/><stop offset="0.58" stop-color="#722530"/><stop offset="0.67" stop-color="#6d202e"/></linearGradient><linearGradient id="linear-gradient-31" x1="337.45" y1="177.42" x2="299.91" y2="201.5" gradientUnits="userSpaceOnUse"><stop offset="0.32" stop-color="#ff7d68"/><stop offset="0.49" stop-color="#fe826b"/><stop offset="0.71" stop-color="#fd9173"/><stop offset="0.94" stop-color="#faaa80"/><stop offset="1" stop-color="#f9b284"/></linearGradient><linearGradient id="linear-gradient-32" x1="319.43" y1="203.82" x2="361.14" y2="182.42" gradientUnits="userSpaceOnUse"><stop offset="0" stop-color="#ffb363"/><stop offset="0.03" stop-color="#f09b5a"/><stop offset="0.1" stop-color="#d56f4b"/><stop offset="0.16" stop-color="#c04d3e"/><stop offset="0.22" stop-color="#b03435"/><stop offset="0.27" stop-color="#a72530"/><stop offset="0.31" stop-color="#a4202e"/></linearGradient><linearGradient id="linear-gradient-33" x1="330.51" y1="176.34" x2="319.41" y2="186.49" xlink:href="#linear-gradient-31"/><radialGradient id="radial-gradient-9" cx="310.26" cy="173.41" r="30.89" gradientUnits="userSpaceOnUse"><stop offset="0" stop-color="#f9b284"/><stop offset="0.19" stop-color="#f9ae82"/><stop offset="0.37" stop-color="#fba37c"/><stop offset="0.55" stop-color="#fd9072"/><stop offset="0.68" stop-color="#ff7d68"/></radialGradient><linearGradient id="linear-gradient-34" x1="313.21" y1="169.93" x2="340.06" y2="155.16" xlink:href="#linear-gradient-25"/><linearGradient id="linear-gradient-35" x1="315.2" y1="193.27" x2="356.92" y2="171.86" gradientUnits="userSpaceOnUse"><stop offset="0" stop-color="#ffb363"/><stop offset="0.07" stop-color="#f09b5a"/><stop offset="0.23" stop-color="#d56f4b"/><stop offset="0.37" stop-color="#c04d3e"/><stop offset="0.51" stop-color="#b03435"/><stop offset="0.64" stop-color="#a72530"/><stop offset="0.75" stop-color="#a4202e"/></linearGradient><linearGradient id="linear-gradient-36" x1="132.71" y1="181" x2="132.71" y2="181" xlink:href="#linear-gradient-7"/></defs><title>2074037</title><g class="cls-1"><g id="BACKGROUND"><path class="cls-2" d="M442.11,311.9c-3.93,10.39-12.74,20.4-24.08,19.89-10-.44-20-8.9-29-4.87-10.14,4.55-7.87,19.09-6.76,30.21,2.26,22.65-8,45.76-26.31,58.95-8.44,6.1-19.19,10.22-29.58,7.8-6.37-1.49-12-5.26-18-7.75-17.05-7-36.25-3.48-53.55,1.79S220.3,430.2,202,429.87a70,70,0,0,1-44.18-17.12c-10.83-9.44-18.76-22.23-31.07-29.64-11.75-7.08-25.88-8.3-39-12.12S60.87,358.88,58.1,345.66C54.37,327.83,72.39,312.54,72,294.44c-.17-7.8-3.78-15.15-6.44-22.57-6-16.61-7.31-34.94-2.23-51.5s16.91-31.11,32.86-38.11c7.93-3.48,16.9-5.21,24.22-9.57a31.25,31.25,0,0,0,4.07-2.89,29.15,29.15,0,0,0,5.57-6.31c6.59-10,7.84-23.5,10.74-35.56,8.6-35.67,37.65-65.49,73.67-74.12s77.47,4.88,101.28,34.06l-.23.13c20.91,3,41.9,7.9,60.66,17.91,44.7,23.86,31.73,76.5,28.6,81.55-4.52,7.32-2.88,17.17,1.39,24.9s10.81,14,16.55,20.74c.64.75,1.27,1.52,1.89,2.3a104,104,0,0,1,12.51,19.73C445.91,273.27,449,293.72,442.11,311.9Z" transform="translate(-23.64 -43.99)"/><g class="cls-3"><path class="cls-4" d="M424.59,235.4c-21-5.45-43.86-1-64.65,5.39-23.72,7.24-47.33,16.84-72.39,16.39a96,96,0,0,1-60.61-23.49C212.1,220.74,201.21,203.2,184.33,193c-16.12-9.71-35.52-11.38-53.51-16.62a90.75,90.75,0,0,1-10.42-3.72,31.25,31.25,0,0,0,4.07-2.89,29.15,29.15,0,0,0,5.57-6.31c6.59-10,7.84-23.5,10.74-35.56,8.6-35.67,37.65-65.49,73.67-74.12s77.47,4.88,101.28,34.06l-.23.13c20.91,3,41.9,7.9,60.66,17.91,44.7,23.86,31.73,76.5,28.6,81.55-4.52,7.32-2.88,17.17,1.39,24.9s10.81,14,16.55,20.74C423.34,233.85,424,234.62,424.59,235.4Z" transform="translate(-23.64 -43.99)"/></g></g><g id="OBJECTS"><path class="cls-5" d="M70.57,316.7c-.92,1.21.05,2.89.93,4.12a42.68,42.68,0,0,1,7.72,19.76A2.18,2.18,0,0,1,77.58,343c-1.31.28-2-.92-2.56-2L65.57,322C64.4,319.58,63,317,59.7,317.11a6,6,0,0,0-2.36.59c-2.47,1.18-4,3.45-5.43,5.66A19.16,19.16,0,0,1,65.78,340a2.71,2.71,0,0,1-1.53,2.71A2,2,0,0,1,61.9,342c-3.33-3.2-4.26-8.33-7.63-11.49-2.6-2.45-6.36-3.37-9.93-3.24a40.63,40.63,0,0,0-10.46,2.24c-1.79.55-3.67,1.16-4.16,3.73a6.26,6.26,0,0,0,1.09,4.7c1.64,2.31,4.28,3.59,6.68,5.07a38.39,38.39,0,0,1,10.22,9.21c-1.9,1.55-4.62-.2-6.54-1.73a40.26,40.26,0,0,0-9.89-5.75,1.85,1.85,0,0,0-1.58-.13,1.55,1.55,0,0,0-.53.55,5.67,5.67,0,0,0-.16,6c2.53,4.23,7.11,5.14,11.43,5.92l11.7,2.14c1.14.2,2.53.67,2.48,1.93a1.88,1.88,0,0,1-1.38,1.63c-7.39,2.38-14.53-2.82-22-4.35a2.64,2.64,0,0,0-1.86.1c-1.08.62-1,2.38-1,3.28a11.2,11.2,0,0,0,3,8c3.5,3.62,6.93,2.35,10.2,1.31,7-2.23,14.49-3.6,21.65-1.55a4.57,4.57,0,0,1,3.41,4.8c-.43,3.61-5,3.91-8.44,3.51a175.55,175.55,0,0,0-19.3-1.19,6.81,6.81,0,0,0-2.95.42,5.19,5.19,0,0,0-2.54,3.69c-1.14,5,1.87,10.3,6.3,12.84s9.91,2.69,14.88,1.51c5.62-1.34,10.75-4.23,15.89-6.83a5.73,5.73,0,0,1,3.74-.55c4,.87,3.47,5.26,1.2,7.23-1.75,1.52-4.16,2-6.44,2.37l-19.33,3.38c-2,.34-4.18.8-4.68,3.43a5,5,0,0,0,.35,2.84c2.7,6.43,10.87,9.59,17.25,7.05,8.56-3.42,12.15-14.81,21-17.46a1.83,1.83,0,0,1,2.2.45,2.68,2.68,0,0,1,.28,2.73c-2,4.53-6.07,7.53-10,10.44-4.1,3-8.31,6.42-9.68,11.48a9.17,9.17,0,0,0,1.57,8.32c3.49,4.14,9.16,2.66,12.41-.63,2.56-2.59,4-6.09,5.28-9.48l3.8-9.75c.8-2,1.67-4.17,3.64-5.27a3.61,3.61,0,0,1,3.61-.06c1.83,1.11,1.61,3.45.57,5a16.09,16.09,0,0,1-3.3,3.13c-4.45,3.71-7.62,9.27-6.36,15.41a10.69,10.69,0,0,0,3.23,5.66c1.45,1.34,3.5,2.46,5.81,0a7.23,7.23,0,0,0,1.58-2.79q3-9.26,6-18.52c.61-1.88,1.77-4.15,3.74-4,1.4,1.93,1.11,4.61.38,6.88-.9,2.82-2.38,5.57-1.65,8.65a4.28,4.28,0,0,0,2.9,3.23c2.48.68,4.37-1.36,5.73-3.27,3.08-4.34,5.63-9.74,4.16-14.86-2.15-7.48-12-11.29-12.86-19v-.09a5.71,5.71,0,0,1,8.18-5.58c2.94,1.39,6.65,3.57,8,6.18.48.92,1,2,2,2.24a3.06,3.06,0,0,0,1.52-.18c10.69-3.36,17.66-15.8,14.7-26.66a3.85,3.85,0,0,0-1.44-2.21c-1.5-1-2.72-.2-3.77.59-2,1.46-3.89,3-5.77,4.52-2.49,2-6.15-.75-4.68-3.62l0-.06c1.16-2.17,3.28-3.62,4.94-5.43,4.48-4.92,5.37-12.92,1.31-18.49a7.9,7.9,0,0,0-5.5-3.17,2.63,2.63,0,0,0-1.52.2,2.93,2.93,0,0,0-1.15,2.3c-.41,2.89-.28,5.89-1.33,8.61s-3.8,5.13-6.64,4.47a42.7,42.7,0,0,0,3.23-14.92,22.7,22.7,0,0,0-1.76-10.45c-1.75-3.72-5.24-6.8-9.46-6.94a3.91,3.91,0,0,0-3.33,1.55c-1.13,1.61-.31,3,.35,4.36a23.21,23.21,0,0,1,1,18.21c-.33.88-.77,1.81-2.07,1.83a2.71,2.71,0,0,1-2.32-1.34c-2.77-4.55-1.22-10-.37-15.08.79-4.69.51-10.37-3.43-13a10.6,10.6,0,0,0-6.94-1.37c-1.14.1-2.49.48-2.83,1.59a3.33,3.33,0,0,0,.56,2.37A47.21,47.21,0,0,1,93.1,347a2.76,2.76,0,0,1-1.42,2.22c-2.09,1.09-3.8-1.6-4.37-3.76A84.76,84.76,0,0,1,85,332.69c-.61-5.68-.73-11.73-5.65-15.87a7,7,0,0,0-7.89-.79A2.53,2.53,0,0,0,70.57,316.7Z" transform="translate(-23.64 -43.99)"/><path class="cls-6" d="M146.13,423.53A52.5,52.5,0,0,1,134.88,405a3.74,3.74,0,0,0-1.35-2.13,3.68,3.68,0,0,0-2.6-.09c-4.2.86-8.62,1.28-12.76.15-4.86-1.33-9-4.7-12.06-8.68s-5.3-8.55-7.49-13.09c4.24.5,8.53,1,12.76.44s8.47-2.33,11.16-5.64c-1.88-1.73-4.53-2.24-7-2.69L98,370.19q1.57-9.22,4-18.3a5.56,5.56,0,0,1,1.12-2.45,5.39,5.39,0,0,1,2.55-1.26,65.81,65.81,0,0,1,16.44-2.42l-8.54-10.32a5.5,5.5,0,0,1-1.38-2.4,4.87,4.87,0,0,1,.28-2.29,22.23,22.23,0,0,1,8.19-11.42,44.16,44.16,0,0,1,8.53-4.41,2,2,0,0,1,2.92.63l8.09,9.12a19.72,19.72,0,0,0-1.38-11,9.11,9.11,0,0,1-1-2.87c-.15-2,1.39-3.81,3.05-5,5.27-3.82,12.17-4.3,18.67-4.64,6.91-.36,13.88-.73,20.72.27,1.33.2,2.9.66,3.25,1.95a3.61,3.61,0,0,1-.4,2.28c-2.14,5.13-4.81,10.79-10,12.68a34.63,34.63,0,0,1-6.11,1.12,24.26,24.26,0,0,0-12.32,6l16.55,3.08a2.85,2.85,0,0,1,2.84,2.43q4,12.57,8,25.13a63.07,63.07,0,0,0-26.7,9.07c1,1.87,3.45,2.36,5.57,2.55a59.64,59.64,0,0,0,22.34-2.35,123.19,123.19,0,0,1-9.13,27.14c-2,4.22-4.45,8.56-8.56,10.76-4.61,2.45-10.16,1.67-15.37,2a2.41,2.41,0,0,0-1.61.53,2.48,2.48,0,0,0-.27,2.25,68.91,68.91,0,0,0,4.15,12.86,2.58,2.58,0,0,1,.31,1.78,2.28,2.28,0,0,1-1,1.06,11.42,11.42,0,0,1-4.7,1.78" transform="translate(-23.64 -43.99)"/><path class="cls-4" d="M160.82,311.05c-11.28,7.34-17.55,18.29-21,30.73-4.69-2.33-9.15-5.8-13.57-8.6-1.9-1.21-4.18,1.5-2.26,2.72,4.74,3,9.7,7.13,14.89,9.58a108.39,108.39,0,0,0-2.14,13.91l-19.66-1.83c-2.26-.21-2.83,3.29-.55,3.5l19.92,1.85c-.1,1.42-.46,17.86-.33,23a16,16,0,0,0-8.43-3.86c-2.25-.32-2.81,3.18-.54,3.5,3.37.48,8.83,5.27,9.12,5.37.19,6,.44,11.73.52,17,0,2.28,3.55,1.9,3.52-.37-.1-6.42-.51-13.1-.82-19.82,2.47-3,8.82-3.17,12.41-3.7A110.69,110.69,0,0,1,164,383c2.28-.08,1.9-3.61-.37-3.52a109.16,109.16,0,0,0-16.53,1.84c-2.58.49-5.42.88-7.75,2.14-.16-4.49-.23-9-.09-13.4l7.41-1.42c2.22-.42,1.87-3.95-.37-3.52l-6.87,1.32c.18-3,.47-5.95.92-8.84.55-3.51,1.28-7.14,2.21-10.77,4.85,1.11,10.83.1,15.52.08,2.28,0,1.9-3.53-.37-3.52-4.54,0-9.59.6-14.1-.36,3.48-11.54,9.33-22.61,19.27-29.08C164.78,312.69,162.72,309.81,160.82,311.05Z" transform="translate(-23.64 -43.99)"/><path class="cls-4" d="M27.32,435.48a10.42,10.42,0,0,0,4.13-1.59A156.51,156.51,0,0,1,69.16,419l1.6-.4c1.87-.46,3.77-.88,5.66-1.26,2.36-.48,4.74-.9,7.06-1.57a14,14,0,0,1-.31-7.26c.15-.69.48-1.49,1.18-1.64a1.74,1.74,0,0,1,1.14.24,5.68,5.68,0,0,1,3,5.45c0,.71-.2,1.56.35,2a1.88,1.88,0,0,0,.78.31L108,418.69c.24-2.68.68-5.73,2.92-7.23,1-.64,2.43-.8,3.15.11,1.38,1.74-1.53,4.85.15,6.28a3,3,0,0,0,1.49.52A91.49,91.49,0,0,1,138,424.85c3,1.3,6,2.78,9.25,3s6.88-1.15,8.18-4.14a6.37,6.37,0,0,0,.52-2.28,10.37,10.37,0,0,0-.11-2.22c0-.25-.08-.51-.13-.75a23.05,23.05,0,0,0-7.32-11.93,57.92,57.92,0,0,0-9.4-6.71,3.11,3.11,0,0,0-3.91.57c-.6.66-1.29,1.39-2,2a1.28,1.28,0,0,1-2.11-1.26c.4-1.55,1.18-3.19.54-4.61a4.63,4.63,0,0,0-1.65-1.7,23.69,23.69,0,0,0-7.42-3.4,86.61,86.61,0,0,0-21.43-2.8c-3,0-6.64.63-7.54,3.46-.52,1.66-.24,4.11-1.94,4.49,0-2.1-1.87-3.85-3.9-4.41a13.59,13.59,0,0,0-6.27.21A116.86,116.86,0,0,0,63,397.73a2.84,2.84,0,0,0-2.33,2.78c-.38,2.37-.76,4.75-1.15,7.12,0,.14,0,.28-.07.41l-.17-.3-4.21-7.41c-.34-.61-.76-1.27-1.44-1.43a2.51,2.51,0,0,0-1.78.49,67.47,67.47,0,0,0-27.55,30.79,4.8,4.8,0,0,0-.57,3.24A3.41,3.41,0,0,0,27.32,435.48Z" transform="translate(-23.64 -43.99)"/><path class="cls-5" d="M39.7,419.68a95.46,95.46,0,0,1,20.16-12.2.84.84,0,0,1,1.34-.58,93.89,93.89,0,0,1,18.22-5.69,15.28,15.28,0,0,0-2.75-5.42c-.66-.83.54-2,1.2-1.14a17.29,17.29,0,0,1,3.19,6.24,90.31,90.31,0,0,1,23.36-1.22c2.69.21,5.38.54,8,1a4.46,4.46,0,0,1,1.47-3.22c.78-.72,1.93.48,1.14,1.2a2.8,2.8,0,0,0-1,2.15c0,.06,0,.11,0,.17,1,.19,2,.39,3,.61a.74.74,0,0,1-.07-.31,26.31,26.31,0,0,1,.68-6.85c.24-1,1.83-.57,1.59.47a24.37,24.37,0,0,0-.61,6.43.76.76,0,0,1-.23.58,92.72,92.72,0,0,1,16.91,5.71c1.77.8,3.52,1.67,5.26,2.56a6.37,6.37,0,0,1,2.12-5.22c.79-.71,1.94.5,1.14,1.21a4.72,4.72,0,0,0-1.57,4.36.77.77,0,0,1-.06.51c3.37,1.79,6.69,3.71,9.89,5.72,4.9,3.07,9.27,6.69,11.48,12.17.4,1-1.06,1.77-1.46.78-2.39-5.91-7.38-9.48-12.69-12.63a151.54,151.54,0,0,0-15-8,90.8,90.8,0,0,0-31.49-7.8l-.63,0a10.59,10.59,0,0,0-2.18,6.25.83.83,0,0,1-1.66,0,12.14,12.14,0,0,1,1.89-6.3,90.43,90.43,0,0,0-38.75,7.35,74.28,74.28,0,0,0,2,7.38c.33,1-1.29,1.39-1.62.38q-1.12-3.5-1.91-7.08a92.62,92.62,0,0,0-19.33,11.75C40,421.55,38.86,420.35,39.7,419.68Z" transform="translate(-23.64 -43.99)"/><path class="cls-5" d="M69.16,419l1.6-.4a28,28,0,0,0-2.86-6.15c-.57-.9-2-.13-1.47.78A27.21,27.21,0,0,1,69.16,419Z" transform="translate(-23.64 -43.99)"/><path class="cls-5" d="M126.35,418a86.56,86.56,0,0,0,2.83-10.14c.22-1.05,1.81-.58,1.59.46A89.25,89.25,0,0,1,128,418.43C127.6,419.44,126,419,126.35,418Z" transform="translate(-23.64 -43.99)"/><path class="cls-5" d="M133.63,414.57a.83.83,0,0,1,1.42.86,10.92,10.92,0,0,0-1.5,5.85c0,1.07-1.63,1-1.66,0A12.61,12.61,0,0,1,133.63,414.57Z" transform="translate(-23.64 -43.99)"/><path class="cls-5" d="M390.49,247.22c1.56.5,1.74,2.6,1.71,4.24a46.23,46.23,0,0,0,5.32,22.32,2.38,2.38,0,0,0,3,1.15c1.33-.56,1.25-2.08,1.06-3.33q-1.69-11.4-3.38-22.8c-.42-2.82-.79-6,2.23-7.92a6.57,6.57,0,0,1,2.46-.93c2.92-.47,5.66.62,8.31,1.69A20.72,20.72,0,0,0,409.12,265a3,3,0,0,0,3,1.47c1.16-.24,1.49-1.17,1.67-2.07,1-4.9-1.36-10-.32-14.91.81-3.78,3.58-6.91,6.84-9A44.13,44.13,0,0,1,431,236c1.93-.61,4-1.24,6,.75a6.73,6.73,0,0,1,1.93,4.85c0,3.06-1.59,5.83-2.8,8.62a41.38,41.38,0,0,0-3.41,14.49c2.64.21,4-3,4.75-5.57A43.08,43.08,0,0,1,442.7,248a2,2,0,0,1,1.33-1.09,1.64,1.64,0,0,1,.81.16,6.13,6.13,0,0,1,3.84,5.23c.36,5.33-3.15,8.95-6.5,12.32l-9.09,9.11c-.87.88-1.83,2.15-1,3.24a2,2,0,0,0,2.22.6c8-2.45,11.18-11.47,16.85-17.42a2.9,2.9,0,0,1,1.72-1.06c1.34-.11,2.35,1.51,2.91,2.3a12.12,12.12,0,0,1,2.28,8.94c-.88,5.37-4.71,6.36-8.26,7.45-7.59,2.33-15.09,5.73-20.19,12a5,5,0,0,0-.07,6.37c2.61,2.94,6.9.35,9.67-2.09a193.36,193.36,0,0,1,16.41-13,7.31,7.31,0,0,1,2.88-1.44,5.6,5.6,0,0,1,4.53,1.71c4.08,3.72,4.68,10.31,2.32,15.3s-7.15,8.5-12.29,10.51c-5.83,2.27-12.17,2.86-18.33,3.73a6.13,6.13,0,0,0-3.66,1.82c-3,3.24.16,6.81,3.39,7.16,2.49.26,4.91-.81,7.18-1.87L460.91,309c2-.92,4.21-1.86,6.27.16a5.46,5.46,0,0,1,1.45,2.74c1.56,7.38-3.75,15.23-11,16.89-9.71,2.24-19.92-5.66-29.39-2.57-.78.25-1.59.61-1.68,1.75a2.89,2.89,0,0,0,1.43,2.6c4.53,2.83,10,2.94,15.31,3.12,5.51.18,11.33.58,15.67,4.23a9.91,9.91,0,0,1,3.73,8.37c-.54,5.82-6.49,8-11.41,7.09-3.87-.73-7.26-3-10.53-5.17l-9.39-6.32c-1.95-1.31-4.05-2.68-6.48-2.44a3.92,3.92,0,0,0-3.25,2.17c-.94,2.11.7,4.06,2.58,4.8a17.68,17.68,0,0,0,4.87.75c6.24.56,12.48,3.54,15.15,9.77a11.57,11.57,0,0,1,.62,7c-.47,2.08-1.6,4.35-5.15,3.6a8,8,0,0,1-3.12-1.5l-16.72-12.78c-1.69-1.3-4.13-2.6-5.77-1.23-.06,2.58,1.85,4.77,3.89,6.34,2.55,2,5.56,3.48,6.81,6.67a4.64,4.64,0,0,1-.59,4.66c-1.78,2.12-4.72,1.49-7.1.62-5.42-2-11-5.18-12.86-10.64-2.7-8,3.66-17.39-.3-24.82a.56.56,0,0,1,0-.08,6.17,6.17,0,0,0-10.7.07c-1.76,3.06-3.71,7.27-3.31,10.43.14,1.11.37,2.39-.39,3.22a3.29,3.29,0,0,1-1.46.78c-11.57,3.61-25.43-3.15-29.5-14.63a4.12,4.12,0,0,1-.08-2.85c.7-1.84,2.29-1.85,3.71-1.8q4,.13,7.92.46c3.47.29,5-4.45,1.92-6.1l-.07,0c-2.36-1.22-5.14-1.2-7.73-1.79-7-1.6-12.74-8.16-12.56-15.61a8.51,8.51,0,0,1,2.93-6.2,2.68,2.68,0,0,1,1.47-.76,3.19,3.19,0,0,1,2.45,1.33c2.14,2.31,3.88,5.06,6.49,6.83s6.53,2.21,8.65-.12a46.21,46.21,0,0,1-12.06-11.27,24.56,24.56,0,0,1-4.89-10.37c-.73-4.38.47-9.27,4.14-12a4.19,4.19,0,0,1,3.9-.67c2,.73,2.14,2.49,2.38,4.09a25.11,25.11,0,0,0,10.35,16.78c.84.58,1.81,1.14,3,.36a3,3,0,0,0,1.24-2.63c-.34-5.75-5.09-9.64-9-13.63-3.59-3.68-6.84-8.89-5-13.69a11.49,11.49,0,0,1,5.32-5.5c1.08-.61,2.51-1.1,3.49-.33a3.53,3.53,0,0,1,1,2.46A51.09,51.09,0,0,0,389.13,288a3,3,0,0,0,2.63,1.11c2.53-.33,2.39-3.77,1.57-6a93.29,93.29,0,0,0-5.77-12.77c-3-5.42-6.59-10.87-4.77-17.59a7.65,7.65,0,0,1,6.53-5.56A3.06,3.06,0,0,1,390.49,247.22Z" transform="translate(-23.64 -43.99)"/><path class="cls-6" d="M389.21,388.72a56.67,56.67,0,0,0-1.4-23.36A3,3,0,0,1,390,361c4.27-1.82,8.44-4.18,11.43-7.74,3.5-4.17,5.06-9.7,5.36-15.13s-.55-10.87-1.41-16.25c-3.46,3.05-7,6.15-11.07,8.25s-9,3.14-13.39,1.86c.61-2.68,2.64-4.78,4.6-6.72l13.6-13.55q-7.1-7.23-14.84-13.78a5.88,5.88,0,0,0-2.51-1.49,5.74,5.74,0,0,0-3,.45,70.38,70.38,0,0,0-16.09,8q.62-7.21,1.22-14.43a6,6,0,0,0-.26-3,5.21,5.21,0,0,0-1.65-1.85,24,24,0,0,0-14.32-5.1,47.9,47.9,0,0,0-10.3,1.33,3,3,0,0,0-1.66.73,2.93,2.93,0,0,0-.55,1.64l-1.56,13.09a21.3,21.3,0,0,1-5.58-10.66,9.69,9.69,0,0,0-.91-3.15c-1.12-1.9-3.58-2.53-5.79-2.57-7-.15-13.47,3.68-19.45,7.39-6.37,3.93-12.78,7.9-18.25,13-1.06,1-2.17,2.37-1.68,3.73a3.84,3.84,0,0,0,1.76,1.78c5.06,3.24,10.93,6.63,16.73,5.08a37.32,37.32,0,0,0,6.12-2.77,26.29,26.29,0,0,1,14.65-2.27L308.3,319.76a3.08,3.08,0,0,0-1,3.92L315.62,351a68.24,68.24,0,0,1,29.31-8.4c.24,2.29-1.6,4.23-3.38,5.7A64.44,64.44,0,0,1,320.26,360a133.19,133.19,0,0,0,24.84,18.49c4.37,2.52,9.23,4.86,14.24,4.27,5.6-.66,10.06-4.77,14.89-7.68a2.66,2.66,0,0,1,1.75-.53c.85.16,1.31,1.05,1.64,1.84a74.38,74.38,0,0,1,4.24,14,2.75,2.75,0,0,0,.82,1.77,2.42,2.42,0,0,0,1.52.34,12.13,12.13,0,0,0,5.28-1.32" transform="translate(-23.64 -43.99)"/><path class="cls-4" d="M306.82,297.84c14.55-.43,26.87,5.43,37.57,14.37,2.74-4.95,4.56-10.79,6.76-16,.94-2.25,4.64-1.24,3.69,1-2.36,5.6-4.23,12.32-7.33,17.7A119.43,119.43,0,0,1,358,326l16.34-13.74c1.87-1.58,4.54,1.18,2.64,2.77l-16.55,13.92c1,1.21,11.41,15.58,14.48,20.25a17.36,17.36,0,0,1,5.11-8.62c1.8-1.68,4.45,1.09,2.64,2.77-2.7,2.5-4.6,10.12-4.79,10.4,3.52,5.43,6.84,10.69,10,15.44,1.37,2-2,3.88-3.36,1.84-3.87-5.77-7.62-12-11.49-18.12-4.06-1.16-9.79,2.62-13.31,4.37a118,118,0,0,0-11.37,6.47c-2.08,1.33-3.92-2-1.85-3.35a117.78,117.78,0,0,1,15.82-8.56c2.6-1.15,5.36-2.56,8.2-2.88-2.62-4.08-5.32-8.11-8.17-12l-7.46,3.31c-2.23,1-4.1-2.35-1.84-3.36l6.91-3.06c-2-2.55-4.08-5-6.27-7.28-2.65-2.78-5.53-5.56-8.6-8.21-3.62,4-9.56,6.76-13.74,9.64-2,1.39-3.86-2-1.84-3.36,4-2.78,8.89-5.38,12.31-9-10.2-8.11-22.23-14.34-35.05-14C304.31,301.74,304.36,297.91,306.82,297.84Z" transform="translate(-23.64 -43.99)"/><path class="cls-4" d="M487.53,285.23a11.36,11.36,0,0,1-3.81,2.89,169,169,0,0,0-35.21,26.16l-1.28,1.24q-2.24,2.21-4.39,4.49c-1.78,1.9-3.52,3.85-5.45,5.59a15.15,15.15,0,0,0-6.5-4.41,2.07,2.07,0,0,0-2.18.15,1.82,1.82,0,0,0-.43,1.18,6.17,6.17,0,0,0,3.3,5.88c.68.35,1.54.7,1.63,1.45a2.11,2.11,0,0,1-.17.89q-3.44,9.54-6.86,19.07c-2.61-1.31-5.66-2.65-8.31-1.44-1.14.53-2.12,1.78-1.7,3,.82,2.25,5.33,1.35,5.69,3.71a3.27,3.27,0,0,1-.37,1.67,98.65,98.65,0,0,0-6.73,24.18c-.51,3.49-.87,7.1-2.5,10.22s-5,5.67-8.47,5.16a7.07,7.07,0,0,1-2.39-.82,10.61,10.61,0,0,1-2-1.37c-.21-.17-.42-.36-.62-.55C395.08,390,393,385.06,392,380a62.52,62.52,0,0,1-.83-12.46,3.38,3.38,0,0,1,2.76-3.28c.94-.17,2-.39,3-.67a1.38,1.38,0,0,0,0-2.65c-1.65-.52-3.61-.73-4.54-2.13a4.81,4.81,0,0,1-.62-2.48,25.51,25.51,0,0,1,1.09-8.77,93.63,93.63,0,0,1,9.63-21.29c1.67-2.74,4.36-5.75,7.47-5,1.83.46,3.93,2.12,5.24.77-1.93-1.2-2.48-3.91-1.84-6.09a14.83,14.83,0,0,1,3.77-5.65,125.22,125.22,0,0,1,15.31-13.8,4.09,4.09,0,0,1,2.05-1,4,4,0,0,1,1.83.45l7.2,3,.41.17c-.05-.11-.12-.21-.18-.33l-4.41-8.09a2.79,2.79,0,0,1-.5-2.13,2.73,2.73,0,0,1,1.47-1.36,73,73,0,0,1,44-7.8,5.25,5.25,0,0,1,3.3,1.32A3.68,3.68,0,0,1,487.53,285.23Z" transform="translate(-23.64 -43.99)"/><path class="cls-5" d="M466,287.61a103.16,103.16,0,0,0-22.7,11.59.92.92,0,0,0-1.3.9,100.94,100.94,0,0,0-15.6,13.51,16.68,16.68,0,0,1-3.42-5.61c-.39-1.08-2.13-.64-1.73.45a18.66,18.66,0,0,0,3.92,6.49,97,97,0,0,0-14.42,20.77q-2,3.92-3.68,8a4.9,4.9,0,0,0-3.8-.49.9.9,0,0,0,.46,1.74,3,3,0,0,1,2.51.35l.19.06c-.41,1-.8,2.09-1.18,3.14a.91.91,0,0,0-.24-.24,28.56,28.56,0,0,0-6.68-3.27c-1.1-.37-1.57,1.36-.48,1.73a26.63,26.63,0,0,1,6.26,3.09.75.75,0,0,0,.66.12,99.36,99.36,0,0,0-4.37,18.81c-.27,2.08-.47,4.18-.64,6.29a6.93,6.93,0,0,0-6-1c-1.1.33-.65,2.07.46,1.74a5.09,5.09,0,0,1,4.9,1,.91.91,0,0,0,.5.23c-.27,4.12-.4,8.25-.37,12.35,0,6.25.87,12.33,4.65,17.48.67.92,2.24,0,1.55-.9-4.07-5.56-4.51-12.18-4.38-18.85a165.39,165.39,0,0,1,1.14-18.35,98.12,98.12,0,0,1,10.76-33.38l.33-.6a11.45,11.45,0,0,1,7,1.56.9.9,0,0,0,.9-1.55,13,13,0,0,0-6.86-1.86,97.63,97.63,0,0,1,28.83-31.43,82.42,82.42,0,0,1,5.65,6c.75.88,2-.39,1.27-1.27-1.71-2-3.52-4-5.41-5.79a99.84,99.84,0,0,1,21.8-11.08C467.49,289,467.05,287.22,466,287.61Z" transform="translate(-23.64 -43.99)"/><path class="cls-5" d="M448.51,314.28l-1.28,1.24a30,30,0,0,1-4-6.13c-.51-1,1-1.95,1.55-.91A28.77,28.77,0,0,0,448.51,314.28Z" transform="translate(-23.64 -43.99)"/><path class="cls-5" d="M415,366.3a94.23,94.23,0,0,1-10.93-3.18c-1.09-.39-1.56,1.34-.48,1.73A94.23,94.23,0,0,0,414.55,368C415.68,368.29,416.16,366.56,415,366.3Z" transform="translate(-23.64 -43.99)"/><path class="cls-5" d="M407.77,371.06a.9.9,0,0,0,0,1.79,11.85,11.85,0,0,1,6.24,2c1,.63,1.86-.92.9-1.55A13.47,13.47,0,0,0,407.77,371.06Z" transform="translate(-23.64 -43.99)"/><g class="cls-1"><polygon class="cls-5" points="421.08 356.86 420.36 362.34 283.69 385.59 284.42 380.12 421.08 356.86"/><polygon class="cls-4" points="323.24 265.52 421.08 356.86 284.42 380.12 200.39 302.19 323.24 265.52"/><polygon class="cls-5" points="150.11 406.54 149.38 412.02 56.97 325.75 57.7 320.27 150.11 406.54"/><polygon class="cls-5" points="284.51 380.12 283.78 385.59 149.54 412.01 150.26 406.53 284.51 380.12"/><polygon class="cls-4" points="57.93 320.31 200.63 302.23 284.59 380.17 150.34 406.58 57.93 320.31"/></g><g class="cls-1"><polygon class="cls-7" points="201.46 298.12 285.58 376.22 160.87 402.35 78.55 322.02 201.46 298.12"/></g><g class="cls-1"><path class="cls-8" d="M225.1,342.12l84.12,78.09a432,432,0,0,0-124.71,26.13L102.19,366Z" transform="translate(-23.64 -43.99)"/></g><g class="cls-1"><polygon class="cls-7" points="408.87 354.96 407.07 353.21 407.17 352.5 406.48 352.63 326.55 274.63 203.63 298.52 284.26 376.39 408.87 354.96"/><path class="cls-9" d="M432.51,399l-1.8-1.76.1-.71-.69.13-79.93-78-122.92,23.9,80.63,77.86C351.11,404.7,392.68,397.37,432.51,399Z" transform="translate(-23.64 -43.99)"/><path class="cls-10" d="M348.49,316.16l82.32,80.33c-43.14-7.92-84.36-1.78-122.91,23.89l-82.32-80.33C255,309.67,297.05,303.85,348.49,316.16Z" transform="translate(-23.64 -43.99)"/></g><g class="cls-1"><path class="cls-11" d="M226.9,339.88l81,80.5c-43.14-7.91-83-1.95-121.59,23.73L104,363.77C133.38,333.39,175.46,327.57,226.9,339.88Z" transform="translate(-23.64 -43.99)"/></g><path class="cls-12" d="M133.26,359.34l29.57,26.1s30.52-21.23,75.75-10.1l-29-30S167,332.81,133.26,359.34Z" transform="translate(-23.64 -43.99)"/><path class="cls-13" d="M293.74,373.18l24.51,25.71s35.75-24,81.5-15.28l-30.51-28.48S326,344.92,293.74,373.18Z" transform="translate(-23.64 -43.99)"/><path class="cls-14" d="M313.22,98.16s-13.37,2.25-37.51,27.78L254,103.19s5.7-5.16,20.68-7.07c8.22-1.05,19.24-1.12,33.65,1.19C309.92,97.56,311.54,97.84,313.22,98.16Z" transform="translate(-23.64 -43.99)"/><path class="cls-15" d="M308.33,97.31C296,99.94,290.64,105,290.64,105a37.86,37.86,0,0,0-16-8.89C282.9,95.07,293.92,95,308.33,97.31Z" transform="translate(-23.64 -43.99)"/><path class="cls-16" d="M282.22,114.65a.36.36,0,0,1-.32-.19c-2.53-5.33-15.56-14.8-15.69-14.89a.35.35,0,0,1,.41-.57c.54.4,13.3,9.67,15.91,15.16a.35.35,0,0,1-.16.46Z" transform="translate(-23.64 -43.99)"/><path class="cls-16" d="M284.65,111a.37.37,0,0,1-.32-.2c-1.67-3.68-13.65-12.22-13.78-12.3a.36.36,0,0,1-.08-.49A.35.35,0,0,1,271,98c.5.35,12.25,8.74,14,12.58a.34.34,0,0,1-.17.46A.32.32,0,0,1,284.65,111Z" transform="translate(-23.64 -43.99)"/><path class="cls-16" d="M287.69,108.23a.34.34,0,0,1-.32-.21c-1.42-3.33-12.75-10.19-12.86-10.26a.34.34,0,0,1-.12-.48.35.35,0,0,1,.47-.12c.48.29,11.65,7,13.15,10.59a.35.35,0,0,1-.19.45A.31.31,0,0,1,287.69,108.23Z" transform="translate(-23.64 -43.99)"/><path class="cls-17" d="M224.27,335.6s-18.55-16.73-83-22.41l8-57.38s14,2.34,33.87,21.8c10.92,10.67,23.62,26.51,36.76,50Q222.09,331.44,224.27,335.6Z" transform="translate(-23.64 -43.99)"/><path class="cls-18" d="M219.9,327.57c-17.92-14.82-31.35-16.74-31.35-16.74a69.81,69.81,0,0,0-5.41-33.22C194.06,288.28,206.76,304.12,219.9,327.57Z" transform="translate(-23.64 -43.99)"/><path class="cls-16" d="M165,309.69a.64.64,0,0,1-.08-.68c4.8-9.76,3.58-39.4,3.56-39.7a.65.65,0,0,1,.62-.67.64.64,0,0,1,.66.62c.06,1.23,1.25,30.26-3.69,40.31a.65.65,0,0,1-.86.3A.74.74,0,0,1,165,309.69Z" transform="translate(-23.64 -43.99)"/><path class="cls-16" d="M173,309.06a.66.66,0,0,1-.07-.69c3.39-6.63,2-33.7,2-34a.64.64,0,1,1,1.27-.07c.06,1.13,1.39,27.69-2.15,34.62a.64.64,0,0,1-.86.28A.68.68,0,0,1,173,309.06Z" transform="translate(-23.64 -43.99)"/><path class="cls-16" d="M180.52,310.24a.65.65,0,0,1-.06-.7c3.2-5.85.14-30.07.11-30.31a.64.64,0,0,1,.55-.72.64.64,0,0,1,.72.55c.13,1,3.14,24.88-.25,31.09a.64.64,0,0,1-1.07.09Z" transform="translate(-23.64 -43.99)"/><path class="cls-19" d="M137,61.9S166.42,100,176.25,105c0,0,12.24-12.11,27.5-16.27,0,0-16.65-34.69-27.87-44.78C175.88,44,160.11,60.64,137,61.9Z" transform="translate(-23.64 -43.99)"/><path class="cls-16" d="M165.27,57.4a.38.38,0,0,1-.22-.69l9.2-6.56a.38.38,0,0,1,.44.62l-9.2,6.55A.4.4,0,0,1,165.27,57.4Z" transform="translate(-23.64 -43.99)"/><path class="cls-16" d="M167.93,60.68a.38.38,0,0,1-.22-.69l9.21-6.56a.37.37,0,0,1,.52.09.37.37,0,0,1-.09.53l-9.2,6.55A.4.4,0,0,1,167.93,60.68Z" transform="translate(-23.64 -43.99)"/><path class="cls-16" d="M158.06,79.62a.36.36,0,0,1-.32-.18.37.37,0,0,1,.12-.52c.17-.1,17.08-10.56,24.25-17.54a.36.36,0,0,1,.53,0,.37.37,0,0,1,0,.53c-7.23,7-24.21,17.54-24.38,17.65A.46.46,0,0,1,158.06,79.62Z" transform="translate(-23.64 -43.99)"/><path class="cls-16" d="M160.7,83.23a.37.37,0,0,1-.3-.15.38.38,0,0,1,.08-.53c.15-.11,15.49-11.38,24.06-17.92a.37.37,0,0,1,.53.07.38.38,0,0,1-.07.53c-8.58,6.55-23.92,17.82-24.07,17.93A.39.39,0,0,1,160.7,83.23Z" transform="translate(-23.64 -43.99)"/><path class="cls-16" d="M164.4,86.31a.36.36,0,0,1-.27-.12.38.38,0,0,1,0-.53c.14-.13,13.35-12.9,23.51-17.36a.38.38,0,0,1,.5.2.38.38,0,0,1-.19.5c-10,4.39-23.16,17.07-23.29,17.2A.38.38,0,0,1,164.4,86.31Z" transform="translate(-23.64 -43.99)"/><path class="cls-16" d="M167.17,89a.38.38,0,0,1-.25-.67c.69-.61,16.91-15,22.73-16.54a.39.39,0,0,1,.47.27.38.38,0,0,1-.27.46C184.2,74,167.59,88.71,167.42,88.86A.39.39,0,0,1,167.17,89Z" transform="translate(-23.64 -43.99)"/><path class="cls-16" d="M170.22,91.42a.41.41,0,0,1-.29-.13.39.39,0,0,1,0-.53c.6-.54,14.62-13.14,21.55-15.78a.38.38,0,0,1,.49.22.39.39,0,0,1-.22.49c-6.8,2.59-21.17,15.5-21.31,15.63A.39.39,0,0,1,170.22,91.42Z" transform="translate(-23.64 -43.99)"/><path class="cls-16" d="M172.53,94a.35.35,0,0,1-.28-.13.37.37,0,0,1,0-.53c.63-.55,15.34-13.39,21.23-14.72a.38.38,0,0,1,.46.29.39.39,0,0,1-.29.45c-5.7,1.29-20.75,14.41-20.9,14.55A.38.38,0,0,1,172.53,94Z" transform="translate(-23.64 -43.99)"/><path class="cls-20" d="M84.48,224.58l-15.5,28c-15.18-1.06-20.1-20.69-35.28-21.75q7-12.72,14-25.42C63.41,205.64,68.82,224.39,84.48,224.58Z" transform="translate(-23.64 -43.99)"/><path class="cls-16" d="M57.58,212.31l-.72-.48L46.18,231.15l.7.52Z" transform="translate(-23.64 -43.99)"/><path class="cls-16" d="M49.27,233.69q5.4-9.75,10.78-19.5c-.22-.19-.45-.37-.68-.55Q54,223.36,48.61,233.1Z" transform="translate(-23.64 -43.99)"/><path class="cls-16" d="M51.57,235.87l10.86-19.64-.66-.59L50.93,235.25Z" transform="translate(-23.64 -43.99)"/><path class="cls-16" d="M53.83,238.14q5.47-9.9,10.94-19.79l-.66-.6L53.19,237.5Z" transform="translate(-23.64 -43.99)"/><path class="cls-16" d="M56.09,240.39l11-19.94-.66-.58-11,19.89Z" transform="translate(-23.64 -43.99)"/><path class="cls-16" d="M58.41,242.53l11.1-20.07-.68-.55-11.08,20Z" transform="translate(-23.64 -43.99)"/><path class="cls-16" d="M60.14,244l.7.52L72,224.26q-.36-.22-.72-.48Z" transform="translate(-23.64 -43.99)"/><path class="cls-16" d="M50.94,209c-.31-.09-.63-.17-.95-.24-.83,1.5-1.65,3-2.48,4.49l.94.26Z" transform="translate(-23.64 -43.99)"/><path class="cls-16" d="M49.58,213.93l.89.35,2.5-4.53-.89-.34Z" transform="translate(-23.64 -43.99)"/><path class="cls-21" d="M383.71,328.6,353.2,310.49c1.7-16.77,23.59-21.55,25.28-38.31l27.66,16.42C405.39,305.93,384.45,311.27,383.71,328.6Z" transform="translate(-23.64 -43.99)"/><path class="cls-16" d="M398.2,299.24c.2-.26.38-.52.57-.78l-21-12.48c-.2.26-.4.51-.61.76Z" transform="translate(-23.64 -43.99)"/><path class="cls-16" d="M374.83,289.32l21.22,12.6.63-.74L375.5,288.6Z" transform="translate(-23.64 -43.99)"/><path class="cls-16" d="M372.33,291.79l21.38,12.69.67-.72L373.05,291.1Z" transform="translate(-23.64 -43.99)"/><path class="cls-16" d="M369.75,294.21,391.28,307l.69-.7-21.49-12.76Z" transform="translate(-23.64 -43.99)"/><path class="cls-16" d="M367.18,296.64l21.69,12.87.67-.71L367.9,296Z" transform="translate(-23.64 -43.99)"/><path class="cls-16" d="M364.73,299.13l21.84,13,.63-.74-21.8-12.94Z" transform="translate(-23.64 -43.99)"/><path class="cls-16" d="M363.09,301c-.21.25-.41.5-.61.76l22,13.06c.19-.27.37-.53.57-.78Z" transform="translate(-23.64 -43.99)"/><path class="cls-16" d="M402.05,292c.11-.34.21-.69.3-1l-4.89-2.9c-.09.35-.2.69-.31,1Z" transform="translate(-23.64 -43.99)"/><path class="cls-16" d="M396.69,290.33c-.13.33-.27.65-.42,1l4.93,2.93c.14-.32.28-.65.4-1Z" transform="translate(-23.64 -43.99)"/><path class="cls-22" d="M168.82,119.3c-2.67-6.2-.29-9.43-.29-9.43-1.92-1.31-5.52.25-5.52.25l-11.67,5a5.75,5.75,0,0,0-3,7.55l8.25,19.16,18.51-8Z" transform="translate(-23.64 -43.99)"/><path class="cls-16" d="M165.16,116.63l-15,5.8a.28.28,0,0,1-.35-.15h0a.28.28,0,0,1,.16-.35l15-5.8a.28.28,0,0,1,.35.16h0A.27.27,0,0,1,165.16,116.63Z" transform="translate(-23.64 -43.99)"/><path class="cls-16" d="M166.57,120.26l-15,5.8a.25.25,0,0,1-.34-.15h0a.25.25,0,0,1,.15-.34l15-5.8a.26.26,0,0,1,.34.15h0A.27.27,0,0,1,166.57,120.26Z" transform="translate(-23.64 -43.99)"/><rect class="cls-16" x="157.06" y="119.39" width="9.01" height="0.61" rx="0.25" transform="translate(-55.89 22.17) rotate(-21.09)"/><rect class="cls-16" x="150.42" y="122.77" width="5.63" height="0.53" rx="0.18" transform="translate(-57.65 19.4) rotate(-21.09)"/><rect class="cls-16" x="151.75" y="125.73" width="9.01" height="0.61" rx="0.25" transform="translate(323.76 143.4) rotate(158.91)"/><rect class="cls-16" x="161.77" y="122.44" width="5.63" height="0.53" rx="0.18" transform="translate(338.66 133.96) rotate(158.91)"/><path class="cls-16" d="M168.34,124l-15,5.8a.27.27,0,0,1-.35-.15h0a.26.26,0,0,1,.16-.34l15-5.8a.26.26,0,0,1,.35.15h0A.27.27,0,0,1,168.34,124Z" transform="translate(-23.64 -43.99)"/><rect class="cls-16" x="153.53" y="129.49" width="9.01" height="0.61" rx="0.25" transform="translate(328.55 150.04) rotate(158.91)"/><path class="cls-23" d="M98.85,113.22a3.66,3.66,0,0,1-2.07,1.06c-4.44.68-9.51,2.74-12,6.58-2.63,4-3.1,10.27-3,15.09.11,5.18,2.5,10,4.84,14.63a13,13,0,0,0,3.47,4.84c2.91,2.17,7.1,1.59,10.26,3.38,4.87,2.75,5.8,10.13,10.9,12.42A10.83,10.83,0,0,0,116,172a23.69,23.69,0,0,0,14.72-5.64,10.4,10.4,0,0,0,3.45-4.75c.77-2.63-.15-5.43-.1-8.16,0-1.82.49-3.6.69-5.4.53-4.71-1.07-10-5.15-12.43-3.06-1.82-6.85-1.72-10.4-1.46a15.17,15.17,0,0,1-4.71-.13,4.83,4.83,0,0,1-3.5-2.88c-.49-1.44,0-3,.25-4.49a13.54,13.54,0,0,0-2.1-10,11.24,11.24,0,0,0-6.84-4.47,3.86,3.86,0,0,0-3.43,1.11Z" transform="translate(-23.64 -43.99)"/><path class="cls-24" d="M142.43,157.47l-23.77-8.8,2.39,12.11,20.07,4.91C142,163.29,143.14,159.44,142.43,157.47Z" transform="translate(-23.64 -43.99)"/><path class="cls-25" d="M159.46,133.73c.45-1.34-8.39-.31-8.39-.31-2.88.85,3.21,8.52,3.21,8.52l-11.06,15.82h0c0,.06,2.09,5.24,1.1,8.36a6.08,6.08,0,0,0,4.9-3.46l9-19.22c1.89-6-4.39-8.15-4.39-8.15C160.29,135.12,159.46,133.73,159.46,133.73Z" transform="translate(-23.64 -43.99)"/><polygon class="cls-26" points="119.58 113.77 118.79 113.47 118.79 113.48 119.58 113.77 119.58 113.77"/><path class="cls-27" d="M143.22,157.76l-.79-.29c.71,2-.44,5.82-1.31,8.22-.07.2-.14.39-.21.56a1.44,1.44,0,0,0,1,1.92,1.11,1.11,0,0,0,.65,0,3,3,0,0,0,1.74-2C145.31,163,143.25,157.82,143.22,157.76Z" transform="translate(-23.64 -43.99)"/><path class="cls-28" d="M155.9,197.64l-28.63-.51,5.44-18c8.54-.58,17.17-1.21,25.12-1.49A42,42,0,0,0,155.9,197.64Z" transform="translate(-23.64 -43.99)"/><path class="cls-29" d="M192.3,190.55c-11,20.91-30.75,35.51-54.82,46.94-.12.07-.24.12-.36.18.66,4.22-1.9,11.36-4.2,16.68-.51,1.16-1,2.23-1.44,3.17a2.08,2.08,0,0,1-2,1.21,2.11,2.11,0,0,1-1.8-1.13,6.89,6.89,0,0,1-.45-5.41l2.26-6.91a7,7,0,0,0,.37-2.06,6.68,6.68,0,0,0-.16-1.84,1.28,1.28,0,0,0-.07-.34,6.13,6.13,0,0,0-.18-.61,4.6,4.6,0,0,1-.2-.77s0,0,0,0a4.8,4.8,0,0,1,4.92-5.6l.37-.25.2-.14c12.09-8.44,23.56-18.81,32.94-35.78l-3.79-.06c-.43-5.54-.72-14.43,1-20.23l0-.07c15.42-.11,27,1.72,28.14,8.77A6.91,6.91,0,0,1,192.3,190.55Z" transform="translate(-23.64 -43.99)"/><path class="cls-30" d="M132.9,254.28a.64.64,0,0,0,0,.07c-.51,1.16-1,2.23-1.44,3.17a2.08,2.08,0,0,1-2,1.21,2.11,2.11,0,0,1-1.8-1.13,6.89,6.89,0,0,1-.45-5.41l2.26-6.91a7,7,0,0,0,.37-2.06,6.68,6.68,0,0,0-.16-1.84,1.28,1.28,0,0,0-.07-.34,6.25,6.25,0,0,0-.27-1c0-.12-.08-.23-.11-.35s0,0,0,0a4.8,4.8,0,0,1,4.92-5.6l.37-.25.2-.14c-.35,3-1.6,13.65-2.1,17.33A9.56,9.56,0,0,0,132.9,254.28Z" transform="translate(-23.64 -43.99)"/><path class="cls-27" d="M165,177.48s0,.05,0,.08c-1.75,5.79-1.46,14.69-1,20.22,0,.71.11,1.38.16,2a3.25,3.25,0,0,1-2.78,3.52l-1,.16a3.31,3.31,0,0,1-3.64-2.4,29.89,29.89,0,0,1-.75-3.39,42,42,0,0,1,1.93-20c.3-.89.59-1.66.86-2.32a3.25,3.25,0,0,1,3.27-2.05h.1A3.3,3.3,0,0,1,165,177.48Z" transform="translate(-23.64 -43.99)"/><path class="cls-31" d="M103.29,132.81s-.49,13.33.16,21.5l6.21-1.89s-1.68-5.62.54-14.63Z" transform="translate(-23.64 -43.99)"/><path class="cls-32" d="M94.5,140c-1.2-1.71-1.71-4.4-.19-5.18a2.92,2.92,0,0,1,1.7-.18c-1-5.83.51-13.43,4.29-15.37,5-2.54,10.42-1.83,16.63,11.13,2.46,5.13,1.16,12.12-3.51,15.06-3.51,2.21-9.59-.05-13.42-3.49C98.13,142.19,96,142.18,94.5,140Z" transform="translate(-23.64 -43.99)"/><path class="cls-33" d="M132.71,179.14c-.42.1-14,3.52-20.58,12.74a1.75,1.75,0,0,1-1.8.69,1.72,1.72,0,0,1-1.38-1.68,52.33,52.33,0,0,1,1.21-11.57,25.42,25.42,0,0,0-.56-3.87,26,26,0,0,0-6.27-12.09,10.54,10.54,0,0,1-1.27-2c-1.7-3.18-3.59-8.58-1.73-9.12l12.09-3.46A11.65,11.65,0,0,1,124,151.75a10.41,10.41,0,0,1,2.12,11.13,13.18,13.18,0,0,0,2.15,12.69A13.73,13.73,0,0,0,132.71,179.14Z" transform="translate(-23.64 -43.99)"/><path class="cls-34" d="M145.11,212.36c-4.58-1.38-9.34-2.54-14.25-3.52-12-1.16-18.85-6.54-20.53-16.27a1.71,1.71,0,0,0,1.79-.69c6.62-9.22,20.17-12.63,20.59-12.74h0a12.29,12.29,0,0,0,1.53.68,137,137,0,0,1,23.68,11.36c-3.68,3-10.54,9.73-12.94,19.28A3.07,3.07,0,0,0,145.11,212.36Z" transform="translate(-23.64 -43.99)"/><path class="cls-35" d="M221.5,305.57H221a9.28,9.28,0,0,1-8-5.07,5.18,5.18,0,0,0-3.34-2.7l-.48-.13a5.9,5.9,0,0,1-3.77-8.49s0-.25,0-.74c0-.26,0-.58,0-1v-.08c-.1-4.5-1.72-17.2-15.36-34.75a32.39,32.39,0,0,1-7.92-19.91c-9.28-8.29-20.43-14.34-33-18.66a2.9,2.9,0,0,0,1.09-1.23c2-4.38,6.45-13.1,11.14-17.46a2.9,2.9,0,0,0,.63-.83c31.27,21,47.22,53.56,50.92,95.27,0,.27,0,.55.07.83l7.93,9.79,1.88,2.33A1.74,1.74,0,0,1,221.5,305.57Z" transform="translate(-23.64 -43.99)"/><path class="cls-30" d="M221.5,305.57H221a9.28,9.28,0,0,1-8-5.07,5.18,5.18,0,0,0-3.34-2.7l-.48-.13a5.9,5.9,0,0,1-3.77-8.49s0-.25,0-.74c0-.26,0-.58,0-1v-.08c9.36,9.57,15.78,15.49,15.51,13.05l1.88,2.33A1.74,1.74,0,0,1,221.5,305.57Z" transform="translate(-23.64 -43.99)"/><path class="cls-27" d="M163.13,194.56a2.94,2.94,0,0,1-.63.84c-4.61,4.36-9,13.08-11,17.46a2.88,2.88,0,0,1-1.08,1.23,3,3,0,0,1-2.8.32l-.85-.35a2.94,2.94,0,0,1-1.7-1.7,3.07,3.07,0,0,1-.13-1.9c2.4-9.55,9.26-16.25,12.94-19.28l.59-.47a3,3,0,0,1,3.58-.13l.08,0A3,3,0,0,1,163.13,194.56Z" transform="translate(-23.64 -43.99)"/><path class="cls-36" d="M113.42,136a.27.27,0,0,1-.2-.12.24.24,0,0,1,.08-.34c.7-.42.69-.61.69-.61-.06-.2-.95-.39-1.87-.4a.24.24,0,0,1-.24-.25.24.24,0,0,1,.25-.24c.63,0,2.15.09,2.33.76.13.48-.46.89-.91,1.16A.22.22,0,0,1,113.42,136Z" transform="translate(-23.64 -43.99)"/><path class="cls-36" d="M111,139.57a4,4,0,0,1-3.45-2.1.28.28,0,0,1,.1-.38.27.27,0,0,1,.38.1c1.71,2.86,4.78,1.55,4.92,1.5a.26.26,0,0,1,.36.14.28.28,0,0,1-.14.37A5.42,5.42,0,0,1,111,139.57Z" transform="translate(-23.64 -43.99)"/><path class="cls-36" d="M106.07,133.72c.3.87.89,1.46,1.32,1.31s.52-1,.22-1.85-.89-1.46-1.32-1.31S105.76,132.85,106.07,133.72Z" transform="translate(-23.64 -43.99)"/><path class="cls-36" d="M112.77,131.75c.3.88.89,1.47,1.32,1.32s.53-1,.22-1.85-.89-1.46-1.32-1.32S112.47,130.88,112.77,131.75Z" transform="translate(-23.64 -43.99)"/><path class="cls-36" d="M103.92,131.81h0a.27.27,0,0,1-.24-.31,2.31,2.31,0,0,1,2.5-2.1.27.27,0,0,1,.25.3.27.27,0,0,1-.3.26,1.76,1.76,0,0,0-1.9,1.62A.28.28,0,0,1,103.92,131.81Z" transform="translate(-23.64 -43.99)"/><path class="cls-36" d="M113.48,128.28a.27.27,0,0,1-.22-.11h0a1,1,0,0,0-1.47-.24.28.28,0,0,1-.39-.09.28.28,0,0,1,.09-.38,1.59,1.59,0,0,1,2.22.38.28.28,0,0,1-.06.39A.3.3,0,0,1,113.48,128.28Z" transform="translate(-23.64 -43.99)"/><path class="cls-37" d="M117,124.64a12.93,12.93,0,0,0-.94-2,7.45,7.45,0,0,0-1.71-2.35,5.87,5.87,0,0,0-4.18-.92,5.78,5.78,0,0,0-6-3.79,7.65,7.65,0,0,0-5.27,3c-1.89,2.46-4.75,7-4.41,11.39.9,11.49,10.85,11.88,10.85,11.88-4.77-3.78-4.91-7.26-4-9.66a7.68,7.68,0,0,1,3.54-4c1.64-.92,4.36-2.67,5.49-4.7a33.75,33.75,0,0,0,3.51,1.75,6.65,6.65,0,0,1,3.28,5.64C117.36,128.84,117.66,126.65,117,124.64Z" transform="translate(-23.64 -43.99)"/><path class="cls-27" d="M103.27,151.42l-.92-2a1,1,0,0,1,.8-1.42l6.84-.73a1,1,0,0,1,1.08.76l.09.38a1.05,1.05,0,0,1-.78,1.29Z" transform="translate(-23.64 -43.99)"/><path class="cls-38" d="M109.6,175.45a26,26,0,0,0-6.27-12.09,10.54,10.54,0,0,1-1.27-2l3.36-5.07S114.17,166,109.6,175.45Z" transform="translate(-23.64 -43.99)"/><path class="cls-39" d="M88.29,181,64,192.11s-6.06.42-13.18,10.37c0,0-.14,2.44,3.7-.72,0,0-.31,2.37,1,1.33l.39-.71a15.57,15.57,0,0,1,4.23-5,.38.38,0,0,1,.25-.08.38.38,0,0,1,.36.43,8.85,8.85,0,0,1-1.87,4.45s-.62,4.31,6-5.89c0,0,19.74-3.92,27.43-7.42a9.23,9.23,0,0,0,2.6-1.8,1.23,1.23,0,0,1-.29-.27C93.2,185,90.46,181.7,88.29,181Z" transform="translate(-23.64 -43.99)"/><path class="cls-40" d="M105.75,157.24a12.33,12.33,0,0,0-2.16-4.13,3,3,0,0,0-5.32,1.58,54.93,54.93,0,0,1-9.45,25.74c1.09.21,6.76,1.45,8.06,4.27a58.11,58.11,0,0,0,9-18.37A16.33,16.33,0,0,0,105.75,157.24Z" transform="translate(-23.64 -43.99)"/><path class="cls-27" d="M96.88,184.7c-1.3-2.82-7-4.06-8.06-4.27-.11.17-.23.33-.34.49l-.19.08c2.17.7,4.91,4,6.35,5.83a1.23,1.23,0,0,0,.29.27,1.42,1.42,0,0,0,.8.29,1.45,1.45,0,0,0,1.08-.42,1.19,1.19,0,0,0,.31-.56A2.73,2.73,0,0,0,96.88,184.7Z" transform="translate(-23.64 -43.99)"/><path class="cls-5" d="M328.27,183.37c-1.13-.47-3.67-.85-8.69,1.07l7,4.33s2.2-.31,2.49-4.12A1.27,1.27,0,0,0,328.27,183.37Z" transform="translate(-23.64 -43.99)"/><path class="cls-41" d="M283.57,226.33s28.69,24.06,38.12,19.25l1.56-3.52-35-17.11Z" transform="translate(-23.64 -43.99)"/><path class="cls-5" d="M300.21,315.65c.05-.14.11-.28.15-.43a7.77,7.77,0,0,0-1.84-7.74,4.36,4.36,0,0,1-1.24-3.41l0-.42a5.06,5.06,0,0,0-5.77-5.41s-.22-.05-.61-.17l-.79-.28-.23,6.61.66.3,7,11.21A1.48,1.48,0,0,0,300.21,315.65Z" transform="translate(-23.64 -43.99)"/><path class="cls-42" d="M290.37,304.52c-3.88-3-7.42-5.81-10.66-8.52-4.78-4-8.87-7.74-12.38-11.18-18.54-18.17-20.8-28.27-20.8-28.27-2.35-12.15,25.18-23.47,41.68-29.11a74.12,74.12,0,0,1,8.76,2.69,68.8,68.8,0,0,1,6.42,2.75l4.89,13.8-26,4.67-22.14,4,12.09,15.92L284,286.77l8.42,11.09Z" transform="translate(-23.64 -43.99)"/><path class="cls-5" d="M263.26,363.72c.16-.05.32-.09.47-.15a8.29,8.29,0,0,0,5.49-6.48,4.65,4.65,0,0,1,2.15-3.22l.38-.23a5.41,5.41,0,0,0,1-8.39s-.09-.21-.24-.63c-.07-.23-.16-.51-.26-.85l-5.82,4c0,.24.1.49.15.74l-5.22,13.11A1.59,1.59,0,0,0,263.26,363.72Z" transform="translate(-23.64 -43.99)"/><path class="cls-43" d="M278.87,298.14c.27-.72.55-1.43.84-2.14q1.92-4.72,4.25-9.23a126.84,126.84,0,0,1,25.32-33.43A104.46,104.46,0,0,0,318.8,243,71.88,71.88,0,0,0,297,230.13c-2,3.47-3.06,4.22-3.06,4.22a171,171,0,0,0-11.68,17,152.33,152.33,0,0,0-10.05,19.89,140,140,0,0,0-4.85,13.58A127.58,127.58,0,0,0,262.08,315c-.37,7.64,1.85,18.28,2.91,29.52a17.44,17.44,0,0,0,1,4.51l6.92-5.44C270,328.91,273.36,312.57,278.87,298.14Z" transform="translate(-23.64 -43.99)"/><path class="cls-44" d="M301.47,207.9c-.13-.66.63-2.18,7.77-4.46l4.91-1.21a7.77,7.77,0,0,0,6-7.38,6.24,6.24,0,0,0-2.24-5,8.31,8.31,0,0,0-8.85-1.14L304.18,191l-4.66,2.1s4.55,4,1.9,9a7.26,7.26,0,0,0-.64,3.43A6,6,0,0,0,301.47,207.9Z" transform="translate(-23.64 -43.99)"/><path class="cls-45" d="M258.8,199.54a37.31,37.31,0,0,1,8.17,2.84l11.89,5.67a11.84,11.84,0,0,0,8,.88l14-3.42a7.26,7.26,0,0,1,.64-3.43c2.65-5-1.9-9-1.9-9l-12.25,5.53a8.5,8.5,0,0,1-5.77.44l-17.29-2.36a7.47,7.47,0,0,0-4.2-4.88l-.77,2-4.73-3.17C252.57,196.34,254.85,198.61,258.8,199.54Z" transform="translate(-23.64 -43.99)"/><path class="cls-46" d="M337.46,201.51c-1.55,3.83-4.89,17.61-8.66,28.92-2.32,6.95-4.8,13-7.11,15.15L318.8,243a69,69,0,0,0-15.41-10.14c-2-1-4.12-1.9-6.42-2.75a70.58,70.58,0,0,0-8.76-2.68l-4.64-1.13c4.6-2.08,18.26-8.76,19.42-15a83.13,83.13,0,0,0,3.44-14.52c.63-5.44,7.93-8.64,7.93-8.64l13.86.63a9.31,9.31,0,0,1,9.24,12.77Z" transform="translate(-23.64 -43.99)"/><path class="cls-47" d="M337.46,201.51c-1.55,3.83-4.89,17.61-8.66,28.92,1-10.28,3.52-22.65-2.72-22.69a11.13,11.13,0,0,1,4.35-10.19l6.18-4.62A9.14,9.14,0,0,1,337.46,201.51Z" transform="translate(-23.64 -43.99)"/><path class="cls-48" d="M256.87,181.79l22.43-29.21a21.93,21.93,0,0,1,37.6,4.83l13.88,32.89A21.92,21.92,0,0,1,309,220.7l-56.63-9.94L250.34,190Z" transform="translate(-23.64 -43.99)"/><path class="cls-5" d="M269.55,214.08,253,216.74a.39.39,0,0,1-.46-.34l-4-25.88,15.55-4.42a1.77,1.77,0,0,1,2.21,1.37L271,212A1.76,1.76,0,0,1,269.55,214.08Z" transform="translate(-23.64 -43.99)"/><path class="cls-49" d="M269.55,214.08,253,216.74a.39.39,0,0,1-.46-.34l-4-25.88,15.55-4.42a1.77,1.77,0,0,1,2.21,1.37L271,212A1.76,1.76,0,0,1,269.55,214.08Z" transform="translate(-23.64 -43.99)"/><polygon class="cls-50" points="226.7 146.03 233.23 137.8 231.07 137.28 224.94 146.52 226.7 146.03"/><polygon class="cls-51" points="233.23 137.8 234.57 143.79 226.7 146.03 233.23 137.8"/><rect class="cls-51" x="253.23" y="193.41" width="11.29" height="7.32" transform="translate(-56.33 8.72) rotate(-10.94)"/><path class="cls-52" d="M318.48,185.47,313.36,188s3.05,3.19,3.14,4.74l2-.91Z" transform="translate(-23.64 -43.99)"/><path class="cls-53" d="M269.62,209.37a37.7,37.7,0,0,1,8.6.93L302.37,216a11.75,11.75,0,0,0,7.95-.93l12.83-6.48a7.2,7.2,0,0,1-.15-3.48c1.45-5.48-3.88-8.35-3.88-8.35l-10.69,8.14a8.44,8.44,0,0,1-5.52,1.73l-28.66-1.25a13.38,13.38,0,0,0-5.46-5l.81,4.14-4.33-2.12a1.42,1.42,0,0,0-1.91,1.41C263.56,208.07,266.09,209.36,269.62,209.37Z" transform="translate(-23.64 -43.99)"/><path class="cls-54" d="M324.36,210.76c-.27-.61.12-2.26,6.56-6.1l4.52-2.28a7.79,7.79,0,0,0,4.21-8.56,6.27,6.27,0,0,0-3.3-4.32,8.3,8.3,0,0,0-8.88.89l-2.83,2.15a19.79,19.79,0,0,1-3.09,1.94l-2,1a1,1,0,0,0-.16,1.7c1.83,1.34,4.66,4.1,3.65,7.89a7.2,7.2,0,0,0,.15,3.48A5.88,5.88,0,0,0,324.36,210.76Z" transform="translate(-23.64 -43.99)"/><path class="cls-55" d="M328.58,173a118.83,118.83,0,0,1-1.23,16c-.57,3.42-10.15,4.8-10.46,4.56a1.11,1.11,0,0,1-.39-1.28c1.22-3.38,2.91-9.54,1.62-15Z" transform="translate(-23.64 -43.99)"/><path class="cls-56" d="M331.16,168.9c-1-5.84-5-12.47-9.22-13-5.52-.72-10.43,1.79-11.91,16.09a13,13,0,0,0,0,1.87c-.57.29-1.16.7-1.12,1.15s.73.68,1.25.79a.25.25,0,0,0,.12,0c.9,4.35,4,8.27,8.17,9.2s9-3.29,11.46-7.82C331.7,176.71,331.74,168.59,331.16,168.9Z" transform="translate(-23.64 -43.99)"/><path class="cls-36" d="M314.36,177.05a4,4,0,0,0,1.82-3.61.28.28,0,0,0-.28-.27.27.27,0,0,0-.27.28,3.87,3.87,0,0,1-3.39,3.87.28.28,0,0,0-.24.32.27.27,0,0,0,.32.23A5.31,5.31,0,0,0,314.36,177.05Z" transform="translate(-23.64 -43.99)"/><path class="cls-36" d="M313.45,171.3c0,.92-.35,1.67-.8,1.68s-.83-.74-.84-1.67.35-1.67.8-1.68S313.44,170.37,313.45,171.3Z" transform="translate(-23.64 -43.99)"/><path class="cls-36" d="M315.12,168.44h0a.28.28,0,0,0,.12-.38,2.3,2.3,0,0,0-3.06-1.13.29.29,0,0,0-.14.37.27.27,0,0,0,.37.14,1.77,1.77,0,0,1,2.34.88A.28.28,0,0,0,315.12,168.44Z" transform="translate(-23.64 -43.99)"/><path class="cls-57" d="M334.94,168.71a22.71,22.71,0,0,1-.65,5.06,13.77,13.77,0,0,1-5.36,7.29c-1.27.53-2.7,1.05-3.86.34a5.52,5.52,0,0,1-1.91-3.05,21.58,21.58,0,0,1-.81-3.26l.29,0c1.61.19,4.51-1,4.73-2.89a3.21,3.21,0,0,0-2.49-3.76,2.86,2.86,0,0,0-2.68,1.36c0-.33.06-.65.11-1a7.59,7.59,0,0,0-.62-4,2.58,2.58,0,0,1-.17-.49,6.15,6.15,0,0,1-4.59.29,2.07,2.07,0,0,1-1.4-1.52,1.58,1.58,0,0,1,.52-1.32,12.52,12.52,0,0,1-5.1,1,4.54,4.54,0,0,1-2.51-.67,2.13,2.13,0,0,1-.88-2.29,2.06,2.06,0,0,1,.88-1.14,6.09,6.09,0,0,1-2.13,0,2.38,2.38,0,0,1-2-2.19,3.21,3.21,0,0,1,2.4-2.72,5.27,5.27,0,0,1,3.53.42c1.08.46,2,1.11,3.17,1.49a11.93,11.93,0,0,0,6.72-.08c2.33-.61,4.82-1.6,6.95-.9a4.66,4.66,0,0,1,2,1.35,13.5,13.5,0,0,1,5.37,9.09A20.19,20.19,0,0,1,334.94,168.71Z" transform="translate(-23.64 -43.99)"/><path class="cls-58" d="M319.81,193.18s0-2.15-3.31-3.84c0,0,10.6.38,12.53-4.8v4.19A17.9,17.9,0,0,1,319.81,193.18Z" transform="translate(-23.64 -43.99)"/><path class="cls-4" d="M245.47,133.4A4,4,0,0,1,244,134a57.59,57.59,0,0,0-13.86,5.33l-.53.29c-.61.34-1.23.7-1.83,1.06-.76.46-1.5.94-2.29,1.33a5.12,5.12,0,0,0-1.72-2,.7.7,0,0,0-.72-.15.6.6,0,0,0-.25.35,2.09,2.09,0,0,0,.54,2.22c.19.17.44.36.4.62a.84.84,0,0,1-.13.27l-4,5.59a3.39,3.39,0,0,0-2.58-1.22c-.41.07-.85.39-.82.81.06.81,1.62.93,1.52,1.73a1.06,1.06,0,0,1-.27.51,32.82,32.82,0,0,0-4.39,7.27,10.81,10.81,0,0,1-1.75,3.11,3,3,0,0,1-3.23.91,2.27,2.27,0,0,1-.7-.49,3.11,3.11,0,0,1-.52-.62c-.06-.08-.11-.16-.16-.24a8.37,8.37,0,0,1-1-5,21,21,0,0,1,.86-4.14,1.15,1.15,0,0,1,1.2-.82c.32,0,.69.06,1,.06a.47.47,0,0,0,.26-.86c-.5-.32-1.12-.57-1.29-1.11a1.71,1.71,0,0,1,0-.87,8.64,8.64,0,0,1,1.15-2.75,31.43,31.43,0,0,1,5.08-6.07c.79-.74,1.94-1.48,2.89-.94.55.32,1.08,1,1.63.73a1.84,1.84,0,0,1,0-2.16,5,5,0,0,1,1.74-1.49,41.35,41.35,0,0,1,6.25-3.11,1,1,0,0,1,1.31.17l2.08,1.63.12.09,0-.12c-.24-1-.47-2-.71-3a.94.94,0,0,1,0-.74.88.88,0,0,1,.6-.31A24.6,24.6,0,0,1,245,131.23a1.74,1.74,0,0,1,1,.73A1.25,1.25,0,0,1,245.47,133.4Z" transform="translate(-23.64 -43.99)"/><path class="cls-5" d="M238.22,132.21a34.57,34.57,0,0,0-8.45,1.72.31.31,0,0,0-.51.17,34.45,34.45,0,0,0-6.32,3,5.53,5.53,0,0,1-.6-2.14c0-.39-.64-.4-.61,0a6.42,6.42,0,0,0,.69,2.47,33.07,33.07,0,0,0-6.59,5.46c-.67.73-1.31,1.49-1.92,2.27a1.65,1.65,0,0,0-1.2-.51.31.31,0,0,0,0,.61,1,1,0,0,1,.78.34l.06,0c-.23.3-.45.61-.67.92a.21.21,0,0,0-.06-.1,9.71,9.71,0,0,0-1.88-1.68c-.32-.22-.64.3-.31.52a9.43,9.43,0,0,1,1.76,1.58.26.26,0,0,0,.2.1,33.86,33.86,0,0,0-3.13,5.73c-.28.66-.54,1.32-.78,2a2.32,2.32,0,0,0-1.87-.87c-.39,0-.4.61,0,.6a1.74,1.74,0,0,1,1.51.79.31.31,0,0,0,.14.12c-.47,1.32-.88,2.66-1.25,4a9.78,9.78,0,0,0-.07,6.12c.14.36.73.21.59-.16-.83-2.18-.36-4.38.28-6.54a58.38,58.38,0,0,1,2-5.88,33.15,33.15,0,0,1,6.55-9.9l.16-.17a3.85,3.85,0,0,1,2.13,1.14.3.3,0,0,0,.44-.42,4.4,4.4,0,0,0-2.07-1.23,33.17,33.17,0,0,1,12.26-7.63c.47.81.9,1.63,1.29,2.48.17.36.7.06.53-.3-.37-.81-.79-1.6-1.24-2.38a33.92,33.92,0,0,1,8.12-1.63C238.6,132.79,238.61,132.18,238.22,132.21Z" transform="translate(-23.64 -43.99)"/><path class="cls-5" d="M230.1,139.32l-.53.29a10.45,10.45,0,0,1-.75-2.36c-.07-.39.52-.54.59-.16A10.28,10.28,0,0,0,230.1,139.32Z" transform="translate(-23.64 -43.99)"/><path class="cls-5" d="M214.46,153.24a32.38,32.38,0,0,1-3.27-2c-.32-.23-.64.29-.32.52a31.44,31.44,0,0,0,3.28,2C214.49,153.94,214.81,153.42,214.46,153.24Z" transform="translate(-23.64 -43.99)"/><path class="cls-5" d="M211.66,154.13a.3.3,0,0,0-.17.58,4,4,0,0,1,1.86,1.21c.25.29.69-.13.43-.43A4.6,4.6,0,0,0,211.66,154.13Z" transform="translate(-23.64 -43.99)"/><path class="cls-4" d="M109.87,311.6a3.89,3.89,0,0,1-1.51-.58,57.12,57.12,0,0,0-13.79-5.51l-.58-.15c-.69-.17-1.38-.32-2.07-.47-.87-.17-1.74-.33-2.58-.58a5.18,5.18,0,0,0,.12-2.65c-.06-.26-.18-.55-.43-.61a.63.63,0,0,0-.42.09,2.09,2.09,0,0,0-1.11,2c0,.26.07.57-.13.73a.61.61,0,0,1-.29.11l-6.71,1.41a3.35,3.35,0,0,0-1.06-2.65.88.88,0,0,0-1.15,0c-.51.64.55,1.78-.07,2.3a1,1,0,0,1-.54.19,33,33,0,0,0-8.16,2.35A10.67,10.67,0,0,1,66,308.69a3,3,0,0,1-3-1.52,2.43,2.43,0,0,1-.18-.84,3.7,3.7,0,0,1,0-.81c0-.09,0-.18,0-.28a8.46,8.46,0,0,1,2.69-4.35,20.51,20.51,0,0,1,3.45-2.45,1.14,1.14,0,0,1,1.43.21c.22.24.47.51.73.75a.47.47,0,0,0,.77-.46c-.15-.57-.43-1.17-.2-1.68a1.65,1.65,0,0,1,.61-.62,8.59,8.59,0,0,1,2.72-1.24,32,32,0,0,1,7.85-1c1.08,0,2.43.24,2.75,1.28.19.6.09,1.5.71,1.64a1.83,1.83,0,0,1,1.43-1.61,5,5,0,0,1,2.3.09,42,42,0,0,1,6.69,2,1.37,1.37,0,0,1,.66.41,1.45,1.45,0,0,1,.19.61l.42,2.6a.78.78,0,0,0,0,.16l.06-.12c.52-.9,1-1.8,1.55-2.7.13-.22.28-.47.53-.53a.92.92,0,0,1,.65.19A24.69,24.69,0,0,1,111,309.67a1.76,1.76,0,0,1,.2,1.18A1.25,1.25,0,0,1,109.87,311.6Z" transform="translate(-23.64 -43.99)"/><path class="cls-5" d="M105.36,305.81A35,35,0,0,0,98,301.32a.31.31,0,0,0-.49-.21,34.11,34.11,0,0,0-6.66-2.1,5.44,5.44,0,0,1,1-2c.24-.3-.2-.72-.44-.41a6.19,6.19,0,0,0-1.17,2.28,33,33,0,0,0-8.55-.47c-1,.07-2,.19-3,.35a1.64,1.64,0,0,0-.53-1.18c-.29-.26-.71.17-.42.44a1,1,0,0,1,.34.78.14.14,0,0,0,0,.07L77,299.1a.2.2,0,0,0,0-.11,9.59,9.59,0,0,0-.24-2.51c-.09-.38-.67-.21-.59.17a8.84,8.84,0,0,1,.22,2.35.26.26,0,0,0,.08.21,33.88,33.88,0,0,0-6.19,2.08c-.65.29-1.29.61-1.93.93a2.32,2.32,0,0,0-.77-1.91c-.29-.26-.71.18-.42.44a1.71,1.71,0,0,1,.57,1.6.35.35,0,0,0,0,.18c-1.23.65-2.45,1.35-3.62,2.09A9.75,9.75,0,0,0,60,309.06c-.14.36.39.65.54.29.88-2.17,2.71-3.46,4.65-4.61a57.79,57.79,0,0,1,5.49-2.93A33.36,33.36,0,0,1,82.19,299h.23a3.91,3.91,0,0,1,.79,2.29.3.3,0,0,0,.6,0,4.35,4.35,0,0,0-.68-2.3,33,33,0,0,1,14.18,2.73,25.7,25.7,0,0,1-.74,2.7c-.12.37.48.51.6.14.28-.85.51-1.72.71-2.59a34.19,34.19,0,0,1,7.06,4.32C105.24,306.49,105.66,306.05,105.36,305.81Z" transform="translate(-23.64 -43.99)"/><path class="cls-5" d="M94.57,305.51l-.58-.15A10.47,10.47,0,0,1,95,303.11c.21-.33.75,0,.54.29A10,10,0,0,0,94.57,305.51Z" transform="translate(-23.64 -43.99)"/><path class="cls-5" d="M73.64,305.09a30.11,30.11,0,0,1-1-3.72c-.08-.38-.67-.21-.59.17a32,32,0,0,0,1,3.72C73.18,305.63,73.77,305.46,73.64,305.09Z" transform="translate(-23.64 -43.99)"/><path class="cls-5" d="M71,303.84c-.2-.34-.72,0-.52.32A4,4,0,0,1,71,306.3c0,.39.6.37.61,0A4.66,4.66,0,0,0,71,303.84Z" transform="translate(-23.64 -43.99)"/><path class="cls-4" d="M369.39,180.19a3.57,3.57,0,0,1,.08-1.62,57.52,57.52,0,0,0,.87-14.82c0-.2,0-.39,0-.6-.06-.7-.13-1.41-.21-2.11-.11-.88-.23-1.75-.26-2.63a5.12,5.12,0,0,0,2.55-.73c.23-.13.47-.34.44-.6a.67.67,0,0,0-.21-.36,2.1,2.1,0,0,0-2.25-.43c-.24.1-.51.25-.73.11a.63.63,0,0,1-.19-.24L366,150.23c.9-.39,1.91-.89,2.18-1.84a.88.88,0,0,0-.4-1.08c-.76-.28-1.51,1.09-2.2.67a1.13,1.13,0,0,1-.35-.46,33.67,33.67,0,0,0-4.81-7,10.91,10.91,0,0,1-2.11-2.87,3,3,0,0,1,.51-3.32,2.26,2.26,0,0,1,.73-.44,4.2,4.2,0,0,1,.79-.22l.27,0a8.54,8.54,0,0,1,5,1.18,21.79,21.79,0,0,1,3.41,2.5,1.14,1.14,0,0,1,.25,1.43,8,8,0,0,0-.48.92.46.46,0,0,0,.67.59c.5-.31,1-.78,1.54-.71a1.59,1.59,0,0,1,.78.38,8.64,8.64,0,0,1,2,2.18,32.25,32.25,0,0,1,3.42,7.13c.35,1,.55,2.38-.33,3-.52.37-1.41.56-1.35,1.19a1.85,1.85,0,0,1,2,.85,5.06,5.06,0,0,1,.64,2.21,42.69,42.69,0,0,1,.25,7,1.29,1.29,0,0,1-.19.75,1.39,1.39,0,0,1-.51.38l-2.34,1.21-.14.07.13,0,3.06.61a.93.93,0,0,1,.66.34.91.91,0,0,1,0,.67,24.61,24.61,0,0,1-7.55,13.11,1.72,1.72,0,0,1-1.06.57A1.25,1.25,0,0,1,369.39,180.19Z" transform="translate(-23.64 -43.99)"/><path class="cls-5" d="M373.46,174.08a34.91,34.91,0,0,0,1.93-8.41.3.3,0,0,0,.05-.53,33.91,33.91,0,0,0-.11-7,5.48,5.48,0,0,1,2.2.33c.37.14.63-.41.26-.55a6.42,6.42,0,0,0-2.53-.39,33.3,33.3,0,0,0-2.25-8.26c-.39-.91-.81-1.81-1.27-2.69a1.59,1.59,0,0,0,.95-.88.3.3,0,0,0-.55-.25,1,1,0,0,1-.63.57l-.06,0c-.18-.33-.37-.66-.56-1H371a10,10,0,0,0,2.31-1c.33-.21,0-.71-.35-.51a9.07,9.07,0,0,1-2.16,1,.26.26,0,0,0-.18.14,32.66,32.66,0,0,0-3.92-5.22c-.48-.53-1-1-1.49-1.54a2.35,2.35,0,0,0,1.57-1.33.3.3,0,0,0-.55-.26,1.72,1.72,0,0,1-1.34,1,.34.34,0,0,0-.17.08c-1-1-2.05-1.9-3.12-2.78a9.73,9.73,0,0,0-5.54-2.6c-.39,0-.5.57-.11.6,2.33.15,4.14,1.48,5.84,3a55.37,55.37,0,0,1,4.51,4.29,33.34,33.34,0,0,1,6.32,10.05c0,.07.05.15.08.22a3.85,3.85,0,0,1-1.92,1.47.3.3,0,0,0,.2.57,4.38,4.38,0,0,0,2-1.37,33.1,33.1,0,0,1,1.88,14.31c-.93.1-1.86.15-2.79.16-.4,0-.34.6.05.6a26.57,26.57,0,0,0,2.68-.14,34.07,34.07,0,0,1-1.87,8.06C372.78,174.19,373.33,174.45,373.46,174.08Z" transform="translate(-23.64 -43.99)"/><path class="cls-5" d="M370.34,163.75c0-.2,0-.39,0-.6a10.21,10.21,0,0,1,2.46.29c.38.1.28.7-.1.6A10.6,10.6,0,0,0,370.34,163.75Z" transform="translate(-23.64 -43.99)"/><path class="cls-5" d="M364.13,143.76a32.65,32.65,0,0,1,3.21-2.15c.34-.19,0-.69-.35-.5a31.37,31.37,0,0,0-3.2,2.15C363.48,143.49,363.82,144,364.13,143.76Z" transform="translate(-23.64 -43.99)"/><path class="cls-5" d="M364.48,140.84c.26-.29-.2-.69-.46-.4a4,4,0,0,1-1.86,1.19c-.38.12-.17.69.2.58A4.54,4.54,0,0,0,364.48,140.84Z" transform="translate(-23.64 -43.99)"/><path class="cls-4" d="M342,85a3.79,3.79,0,0,1-1.13-1.16,57.63,57.63,0,0,0-10.27-10.72l-.48-.38c-.55-.44-1.12-.87-1.69-1.28s-1.44-1-2.11-1.6a5,5,0,0,0,1.21-2.37c.06-.25.07-.57-.14-.72a.59.59,0,0,0-.41-.1A2.09,2.09,0,0,0,325.15,68c-.09.24-.17.54-.42.6a.65.65,0,0,1-.31,0l-6.69-1.51a3.36,3.36,0,0,0,.13-2.85.88.88,0,0,0-1.06-.44c-.72.37-.23,1.85-1,2.07a1.11,1.11,0,0,1-.57-.06,33.73,33.73,0,0,0-8.41-1.24,10.52,10.52,0,0,1-3.54-.41,3,3,0,0,1-2.09-2.62,2.43,2.43,0,0,1,.18-.84,3.27,3.27,0,0,1,.37-.72l.16-.23a8.44,8.44,0,0,1,4.26-2.86,21.44,21.44,0,0,1,4.15-.8,1.13,1.13,0,0,1,1.21.79c.1.31.22.66.35,1a.47.47,0,0,0,.9-.09c.1-.58.09-1.25.52-1.62a1.64,1.64,0,0,1,.81-.31,8.58,8.58,0,0,1,3,0,31.63,31.63,0,0,1,7.55,2.34c1,.45,2.12,1.22,2,2.3-.08.63-.55,1.41,0,1.79a1.82,1.82,0,0,1,2-.87,5,5,0,0,1,2.05,1A43.3,43.3,0,0,1,335.88,67a1.33,1.33,0,0,1,.43.65,1.36,1.36,0,0,1-.08.63c-.23.85-.46,1.7-.7,2.55l0,.14.11-.07c.84-.61,1.68-1.22,2.53-1.82a.92.92,0,0,1,.69-.26.9.9,0,0,1,.52.44,24.67,24.67,0,0,1,4.47,14.44,1.75,1.75,0,0,1-.3,1.17A1.26,1.26,0,0,1,342,85Z" transform="translate(-23.64 -43.99)"/><path class="cls-5" d="M340.3,77.86a35.17,35.17,0,0,0-4.85-7.13.31.31,0,0,0-.36-.4,34.3,34.3,0,0,0-5.19-4.67,5.57,5.57,0,0,1,1.74-1.38c.34-.18.12-.75-.23-.57a6.5,6.5,0,0,0-2,1.59,33,33,0,0,0-7.59-4c-.93-.35-1.87-.64-2.83-.9a1.68,1.68,0,0,0,0-1.3.31.31,0,0,0-.57.23,1,1,0,0,1,0,.86.13.13,0,0,0,0,.06L317.29,60a.31.31,0,0,0,.07-.09,9.66,9.66,0,0,0,.82-2.39c.08-.38-.52-.47-.6-.08a8.82,8.82,0,0,1-.78,2.23.27.27,0,0,0,0,.23,33.74,33.74,0,0,0-6.5-.68c-.71,0-1.42,0-2.14,0a2.33,2.33,0,0,0,.09-2.06c-.15-.36-.72-.13-.56.23a1.76,1.76,0,0,1-.14,1.69.26.26,0,0,0-.06.18q-2.1.12-4.17.39a9.79,9.79,0,0,0-5.67,2.3c-.28.27.08.75.37.48,1.69-1.6,3.9-2,6.15-2.26a53.47,53.47,0,0,1,6.2-.39A33.24,33.24,0,0,1,322,62.06l.21.09a3.91,3.91,0,0,1-.22,2.41.3.3,0,0,0,.55.24,4.44,4.44,0,0,0,.34-2.38,33.09,33.09,0,0,1,11.77,8.35c-.56.75-1.15,1.47-1.78,2.16-.27.28.21.65.48.37.6-.66,1.17-1.35,1.71-2.06a33.42,33.42,0,0,1,4.64,6.85C339.91,78.44,340.48,78.21,340.3,77.86Z" transform="translate(-23.64 -43.99)"/><path class="cls-5" d="M330.61,73.13l-.48-.38A10.74,10.74,0,0,1,332,71.14c.33-.21.7.27.37.48A9.88,9.88,0,0,0,330.61,73.13Z" transform="translate(-23.64 -43.99)"/><path class="cls-5" d="M311.72,64.08a32.83,32.83,0,0,1,.61-3.81c.09-.38-.52-.47-.6-.09a32.83,32.83,0,0,0-.61,3.81C311.08,64.38,311.69,64.47,311.72,64.08Z" transform="translate(-23.64 -43.99)"/><path class="cls-5" d="M309.82,61.84a.3.3,0,0,0-.6.07,4,4,0,0,1-.4,2.18c-.17.35.39.58.56.23A4.51,4.51,0,0,0,309.82,61.84Z" transform="translate(-23.64 -43.99)"/><rect class="cls-59" x="118.4" y="65.21" width="3.3" height="27.47" transform="translate(228.24 92.1) rotate(170.11)"/><path class="cls-4" d="M123,95.73h0a1.65,1.65,0,0,0,1.34-1.91L124,92.19l-3.26.57.29,1.63A1.65,1.65,0,0,0,123,95.73Z" transform="translate(-23.64 -43.99)"/><polygon class="cls-4" points="92.43 21.7 95.68 21.14 94.13 18.69 93.06 18.87 92.43 21.7"/><polygon class="cls-36" points="93.06 18.87 94.13 18.69 93.37 17.48 93.06 18.87"/><rect class="cls-36" x="120.65" y="91.16" width="3.3" height="1.32" transform="matrix(-0.99, 0.17, -0.17, -0.99, 234.91, 117.28)"/><rect class="cls-59" x="401.44" y="179.74" width="3.3" height="27.47" transform="translate(276.56 -285.63) rotate(51.06)"/><path class="cls-4" d="M416.34,182.76h0a1.65,1.65,0,0,0-2.32-.25l-1.29,1,2.08,2.57,1.29-1A1.64,1.64,0,0,0,416.34,182.76Z" transform="translate(-23.64 -43.99)"/><polygon class="cls-4" points="369.81 159.4 367.73 156.83 366.34 159.38 367.02 160.22 369.81 159.4"/><polygon class="cls-36" points="367.02 160.22 366.34 159.38 365.65 160.63 367.02 160.22"/><rect class="cls-36" x="411.61" y="184.59" width="3.3" height="1.32" transform="translate(273.93 -296.59) rotate(51.05)"/><rect class="cls-59" x="49.85" y="258.53" width="3.3" height="27.47" transform="translate(-217.19 98.92) rotate(-51.46)"/><path class="cls-4" d="M38.18,261.65h0a1.64,1.64,0,0,0,.26,2.32l1.29,1,2.06-2.58-1.29-1A1.65,1.65,0,0,0,38.18,261.65Z" transform="translate(-23.64 -43.99)"/><polygon class="cls-4" points="39.64 235.55 37.58 238.13 40.37 238.93 41.05 238.08 39.64 235.55"/><polygon class="cls-36" points="41.05 238.08 40.37 238.93 41.74 239.33 41.05 238.08"/><rect class="cls-36" x="39.63" y="263.46" width="3.3" height="1.32" transform="translate(-214.67 87.85) rotate(-51.46)"/><path class="cls-60" d="M132.71,181" transform="translate(-23.64 -43.99)"/></g></g></svg>